<svg xmlns="http://www.w3.org/2000/svg" width="271.563" height="59" viewBox="0 0 271.563 59">
  <g id="Grupo_1113336" data-name="Grupo 1113336" transform="translate(-454.988 -2775)">
    <line id="Línea_586" data-name="Línea 586" x2="40" transform="translate(519.551 2802.521)" fill="none" stroke="#8a9bb1" stroke-linecap="round" stroke-width="2"/>
    <line id="Línea_590" data-name="Línea 590" x2="36" y2="0.5" transform="translate(466.551 2810)" fill="none" stroke="#8a9bb1" stroke-linecap="round" stroke-width="2"/>
    <line id="Línea_591" data-name="Línea 591" x2="36" y2="0.5" transform="translate(466.551 2794.5)" fill="none" stroke="#8a9bb1" stroke-linecap="round" stroke-width="2"/>
    <line id="Línea_592" data-name="Línea 592" x2="36" y2="0.5" transform="translate(636.051 2786)" fill="none" stroke="#8a9bb1" stroke-linecap="round" stroke-width="2"/>
    <line id="Línea_593" data-name="Línea 593" x2="36" y2="0.5" transform="translate(636.051 2822)" fill="none" stroke="#8a9bb1" stroke-linecap="round" stroke-width="2"/>
    <line id="Línea_587" data-name="Línea 587" x2="53" transform="translate(672.551 2802.5)" fill="none" stroke="#8a9bb1" stroke-linecap="round" stroke-width="2"/>
    <line id="Línea_589" data-name="Línea 589" y1="6" x2="8" transform="translate(693.051 2805)" fill="none" stroke="#8a9bb1" stroke-linecap="round" stroke-width="2"/>
    <g id="Rectángulo_406754" data-name="Rectángulo 406754" transform="translate(651.051 2775)" fill="#fff" stroke="#8a9bb1" stroke-width="3">
      <rect width="42" height="59" stroke="none"/>
      <rect x="1.5" y="1.5" width="39" height="56" fill="none"/>
    </g>
    <path id="Trazado_901098" data-name="Trazado 901098" d="M1.936-2.418H-1.936L-2.806,0H-4.062L-.533-9.242H.533L4.069,0H2.818Zm-3.5-1H1.574L0-7.738Z" transform="translate(459.051 2796)" fill="#12263f"/>
    <path id="Trazado_901099" data-name="Trazado 901099" d="M-2.974,0V-9.242H.048a3.507,3.507,0,0,1,2.263.622,2.242,2.242,0,0,1,.759,1.841A1.877,1.877,0,0,1,2.7-5.634a2.387,2.387,0,0,1-1,.771,2.143,2.143,0,0,1,1.184.8,2.286,2.286,0,0,1,.435,1.4A2.472,2.472,0,0,1,2.51-.711,3.334,3.334,0,0,1,.232,0Zm1.219-4.323V-1H.257A1.938,1.938,0,0,0,1.6-1.438a1.549,1.549,0,0,0,.492-1.216q0-1.669-1.815-1.669Zm0-.978H.086a1.93,1.93,0,0,0,1.279-.4,1.344,1.344,0,0,0,.479-1.088A1.321,1.321,0,0,0,1.4-7.9,2.182,2.182,0,0,0,.048-8.246h-1.8Z" transform="translate(459.051 2814)" fill="#12263f"/>
    <path id="Trazado_901100" data-name="Trazado 901100" d="M-8.649-2.418h-3.872L-13.39,0h-1.257l3.529-9.242h1.066L-6.516,0h-1.25Zm-3.5-1H-9.01l-1.574-4.323Zm4.932-6.906h-5.37v-.343h5.37ZM-2.212-.616a.735.735,0,0,1,.181-.508.689.689,0,0,1,.543-.2.71.71,0,0,1,.549.2.721.721,0,0,1,.187.508.681.681,0,0,1-.187.489.723.723,0,0,1-.549.2.7.7,0,0,1-.543-.2A.7.7,0,0,1-2.212-.616ZM4.586,0V-9.242H7.608a3.507,3.507,0,0,1,2.263.622,2.242,2.242,0,0,1,.759,1.841,1.877,1.877,0,0,1-.368,1.146,2.387,2.387,0,0,1-1,.771,2.143,2.143,0,0,1,1.184.8,2.286,2.286,0,0,1,.435,1.4,2.472,2.472,0,0,1-.806,1.955A3.334,3.334,0,0,1,7.792,0ZM5.8-4.323V-1H7.817A1.938,1.938,0,0,0,9.16-1.438a1.549,1.549,0,0,0,.492-1.216q0-1.669-1.815-1.669Zm0-.978H7.646a1.93,1.93,0,0,0,1.279-.4A1.344,1.344,0,0,0,9.4-6.789,1.321,1.321,0,0,0,8.96-7.9a2.182,2.182,0,0,0-1.352-.347H5.8Zm4.926-5.021H5.361v-.343h5.37Z" transform="translate(549.051 2797)" fill="#12263f"/>
    <path id="Trazado_901101" data-name="Trazado 901101" d="M-13.952-4.12a5.731,5.731,0,0,1-2.282-1.108,2.116,2.116,0,0,1-.714-1.622,2.236,2.236,0,0,1,.873-1.806,3.469,3.469,0,0,1,2.269-.714,3.786,3.786,0,0,1,1.7.368,2.792,2.792,0,0,1,1.155,1.016,2.6,2.6,0,0,1,.409,1.416h-1.225A1.69,1.69,0,0,0-12.3-7.892a2.168,2.168,0,0,0-1.5-.481,2.22,2.22,0,0,0-1.406.4,1.326,1.326,0,0,0-.5,1.1,1.193,1.193,0,0,0,.479.957,4.7,4.7,0,0,0,1.631.715,7.569,7.569,0,0,1,1.8.715,2.736,2.736,0,0,1,.965.911,2.325,2.325,0,0,1,.314,1.225,2.159,2.159,0,0,1-.876,1.8,3.735,3.735,0,0,1-2.342.676A4.344,4.344,0,0,1-15.52-.238a2.991,2.991,0,0,1-1.273-1,2.44,2.44,0,0,1-.448-1.441h1.225A1.592,1.592,0,0,0-15.4-1.355a2.606,2.606,0,0,0,1.654.486,2.4,2.4,0,0,0,1.479-.394,1.278,1.278,0,0,0,.514-1.073,1.255,1.255,0,0,0-.476-1.051A5.489,5.489,0,0,0-13.952-4.12ZM-4.907,0a2.467,2.467,0,0,1-.165-.724A2.62,2.62,0,0,1-7.027.127,2.424,2.424,0,0,1-8.693-.448,1.859,1.859,0,0,1-9.344-1.9a1.942,1.942,0,0,1,.816-1.666,3.846,3.846,0,0,1,2.295-.594h1.143V-4.7a1.319,1.319,0,0,0-.368-.981,1.48,1.48,0,0,0-1.085-.365A1.712,1.712,0,0,0-7.6-5.732a.935.935,0,0,0-.425.768H-9.2a1.621,1.621,0,0,1,.365-.993,2.491,2.491,0,0,1,.99-.759A3.331,3.331,0,0,1-6.475-7a2.715,2.715,0,0,1,1.86.594,2.141,2.141,0,0,1,.7,1.635v3.161A3.865,3.865,0,0,0-3.675-.1V0ZM-6.855-.9a2.064,2.064,0,0,0,1.047-.286,1.728,1.728,0,0,0,.717-.743V-3.333h-.92q-2.158,0-2.158,1.263a1.069,1.069,0,0,0,.368.863A1.415,1.415,0,0,0-6.855-.9ZM-.8,0H-1.974V-9.75H-.8ZM2.355,0H1.181V-6.868H2.355ZM1.085-8.69a.7.7,0,0,1,.175-.482.655.655,0,0,1,.517-.2.666.666,0,0,1,.521.2.694.694,0,0,1,.178.482.671.671,0,0,1-.178.476.678.678,0,0,1-.521.19.667.667,0,0,1-.517-.19A.678.678,0,0,1,1.085-8.69Zm2.863,5.2A4.023,4.023,0,0,1,4.7-6.033,2.369,2.369,0,0,1,6.659-7a2.382,2.382,0,0,1,1.911.825V-9.75H9.744V0H8.665L8.607-.736A2.391,2.391,0,0,1,6.646.127,2.346,2.346,0,0,1,4.7-.851,4.069,4.069,0,0,1,3.948-3.4Zm1.174.133A3.046,3.046,0,0,0,5.6-1.53a1.56,1.56,0,0,0,1.333.66,1.713,1.713,0,0,0,1.631-1V-5.027A1.726,1.726,0,0,0,6.951-6,1.567,1.567,0,0,0,5.6-5.332,3.354,3.354,0,0,0,5.123-3.358ZM15.806,0a2.467,2.467,0,0,1-.165-.724,2.62,2.62,0,0,1-1.955.851,2.424,2.424,0,0,1-1.666-.574A1.859,1.859,0,0,1,11.369-1.9a1.942,1.942,0,0,1,.816-1.666,3.846,3.846,0,0,1,2.295-.594h1.143V-4.7a1.319,1.319,0,0,0-.368-.981,1.48,1.48,0,0,0-1.085-.365,1.712,1.712,0,0,0-1.054.317.935.935,0,0,0-.425.768H11.508a1.621,1.621,0,0,1,.365-.993,2.491,2.491,0,0,1,.99-.759A3.331,3.331,0,0,1,14.238-7,2.715,2.715,0,0,1,16.1-6.4a2.141,2.141,0,0,1,.7,1.635v3.161a3.865,3.865,0,0,0,.241,1.5V0ZM13.857-.9A2.064,2.064,0,0,0,14.9-1.181a1.728,1.728,0,0,0,.717-.743V-3.333H14.7q-2.158,0-2.158,1.263a1.069,1.069,0,0,0,.368.863A1.415,1.415,0,0,0,13.857-.9Z" transform="translate(549.051 2817)" fill="#12263f"/>
    <path id="Trazado_901102" data-name="Trazado 901102" d="M1.936-2.418H-1.936L-2.806,0H-4.062L-.533-9.242H.533L4.069,0H2.818Zm-3.5-1H1.574L0-7.738Z" transform="translate(629.051 2790)" fill="#12263f"/>
    <path id="Trazado_901103" data-name="Trazado 901103" d="M-2.974,0V-9.242H.048a3.507,3.507,0,0,1,2.263.622,2.242,2.242,0,0,1,.759,1.841A1.877,1.877,0,0,1,2.7-5.634a2.387,2.387,0,0,1-1,.771,2.143,2.143,0,0,1,1.184.8,2.286,2.286,0,0,1,.435,1.4A2.472,2.472,0,0,1,2.51-.711,3.334,3.334,0,0,1,.232,0Zm1.219-4.323V-1H.257A1.938,1.938,0,0,0,1.6-1.438a1.549,1.549,0,0,0,.492-1.216q0-1.669-1.815-1.669Zm0-.978H.086a1.93,1.93,0,0,0,1.279-.4,1.344,1.344,0,0,0,.479-1.088A1.321,1.321,0,0,0,1.4-7.9,2.182,2.182,0,0,0,.048-8.246h-1.8Z" transform="translate(629.051 2826)" fill="#12263f"/>
    <path id="Trazado_901104" data-name="Trazado 901104" d="M-3.4-2.482a2.167,2.167,0,0,1,.371-1.225,5.659,5.659,0,0,1,1.419-1.3,6.126,6.126,0,0,1-.825-1.206,2.164,2.164,0,0,1-.209-.908,2.179,2.179,0,0,1,.622-1.65,2.337,2.337,0,0,1,1.688-.6,2.275,2.275,0,0,1,1.574.555,1.8,1.8,0,0,1,.622,1.4,1.975,1.975,0,0,1-.282,1.031,3.671,3.671,0,0,1-.987.993l-.679.5L1.971-2.431A3.9,3.9,0,0,0,2.4-4.266h1.06a4.425,4.425,0,0,1-.781,2.685L4,0H2.593L1.977-.73a3.218,3.218,0,0,1-1.1.638A3.9,3.9,0,0,1-.409.127,3.176,3.176,0,0,1-2.58-.59,2.392,2.392,0,0,1-3.4-2.482Zm2.99,1.65A2.472,2.472,0,0,0,1.3-1.542L-.955-4.24l-.209.152a2.113,2.113,0,0,0-1.06,1.606,1.559,1.559,0,0,0,.486,1.2A1.879,1.879,0,0,0-.409-.832ZM-1.469-7.16A2.666,2.666,0,0,0-.72-5.637l.749-.527a1.993,1.993,0,0,0,.59-.581,1.324,1.324,0,0,0,.159-.67A.908.908,0,0,0,.46-8.122,1.158,1.158,0,0,0-.34-8.4a1.035,1.035,0,0,0-.825.352A1.315,1.315,0,0,0-1.469-7.16Z" transform="translate(672.051 2792)" fill="#12263f"/>
    <path id="Trazado_901105" data-name="Trazado 901105" d="M-8.649-2.418h-3.872L-13.39,0h-1.257l3.529-9.242h1.066L-6.516,0h-1.25Zm-3.5-1H-9.01l-1.574-4.323Zm4.932-6.906h-5.37v-.343h5.37ZM-2.212-.616a.735.735,0,0,1,.181-.508.689.689,0,0,1,.543-.2.71.71,0,0,1,.549.2.721.721,0,0,1,.187.508.681.681,0,0,1-.187.489.723.723,0,0,1-.549.2.7.7,0,0,1-.543-.2A.7.7,0,0,1-2.212-.616ZM4.586,0V-9.242H7.608a3.507,3.507,0,0,1,2.263.622,2.242,2.242,0,0,1,.759,1.841,1.877,1.877,0,0,1-.368,1.146,2.387,2.387,0,0,1-1,.771,2.143,2.143,0,0,1,1.184.8,2.286,2.286,0,0,1,.435,1.4,2.472,2.472,0,0,1-.806,1.955A3.334,3.334,0,0,1,7.792,0ZM5.8-4.323V-1H7.817A1.938,1.938,0,0,0,9.16-1.438a1.549,1.549,0,0,0,.492-1.216q0-1.669-1.815-1.669Zm0-.978H7.646a1.93,1.93,0,0,0,1.279-.4A1.344,1.344,0,0,0,9.4-6.789,1.321,1.321,0,0,0,8.96-7.9a2.182,2.182,0,0,0-1.352-.347H5.8Zm4.926-5.021H5.361v-.343h5.37Z" transform="translate(713.051 2797)" fill="#12263f"/>
    <circle id="Elipse_11639" data-name="Elipse 11639" cx="3" cy="3" r="3" transform="translate(693.051 2799)" fill="#8a9bb1"/>
    <g id="Trazado_900540" data-name="Trazado 900540" transform="translate(475.676 2786)" fill="#c7e0ff">
      <path d="M 36.82077407836914 32.54366683959961 C 36.17082595825195 32.54366683959961 35.77689361572266 32.50316619873047 35.77299499511719 32.50275802612305 L 35.74701309204102 32.50003814697266 L 35.72048568725586 32.49999618530273 L 0.5000043511390686 32.49999618530273 L 0.5000043511390686 0.4999978840351105 L 35.70714950561523 0.4999978840351105 C 35.93320083618164 0.513043224811554 39.89226150512695 0.772884726524353 43.72302627563477 2.954547882080078 C 46.00548553466797 4.254447937011719 47.80013275146484 5.976068019866943 49.05712509155273 8.071598052978516 C 50.6328125 10.6984281539917 51.37069320678711 13.93530750274658 51.25026321411133 17.69232749938965 C 51.06122589111328 23.58980751037598 49.01759338378906 27.82225799560547 45.17615509033203 30.27210807800293 C 42.07704544067383 32.24855804443359 38.61100387573242 32.54366683959961 36.82077407836914 32.54366683959961 Z" stroke="none"/>
      <path d="M 0.9999961853027344 0.9999961853027344 L 0.9999961853027344 31.99999809265137 L 35.77354431152344 32.00016784667969 L 35.82470703125 32.00544738769531 C 35.82841491699219 32.00582885742188 36.20244598388672 32.04366683959961 36.82077407836914 32.04366683959961 C 38.55652618408203 32.04366683959961 41.91519546508789 31.75874710083008 44.90730285644531 29.85054779052734 C 48.60114288330078 27.49481773376465 50.56708526611328 23.39881896972656 50.75051498413086 17.67630767822266 C 50.86754608154297 14.02552795410156 50.15717315673828 10.88663864135742 48.63913345336914 8.346817016601562 C 47.43194580078125 6.327068328857422 45.70485305786133 4.664838790893555 43.50583648681641 3.406307220458984 C 39.81856918334961 1.296028137207031 35.99197387695312 1.01861572265625 35.69259262084961 0.9999961853027344 L 0.9999961853027344 0.9999961853027344 M -3.814697265625e-06 -3.814697265625e-06 L 35.72048187255859 -3.814697265625e-06 C 35.72048187255859 -3.814697265625e-06 52.29296493530273 0.7695274353027344 51.75000381469727 17.70834732055664 C 51.20703506469727 34.64715576171875 35.72048187255859 32.99999618530273 35.72048187255859 32.99999618530273 L -3.814697265625e-06 32.99999618530273 L -3.814697265625e-06 -3.814697265625e-06 Z" stroke="none" fill="#8a9bb1"/>
    </g>
    <g id="Elipse_11644" data-name="Elipse 11644" transform="translate(526.051 2799)" fill="#c7e0ff" stroke="#8a9bb1" stroke-width="1">
      <circle cx="3.5" cy="3.5" r="3.5" stroke="none"/>
      <circle cx="3.5" cy="3.5" r="3" fill="none"/>
    </g>
  </g>
</svg>
