<svg xmlns="http://www.w3.org/2000/svg" width="85" height="85" viewBox="0 0 85 85">
  <g id="Grupo_1113335" data-name="Grupo 1113335" transform="translate(-180.051 -403)">
    <circle id="Elipse_11656" data-name="Elipse 11656" cx="42.5" cy="42.5" r="42.5" transform="translate(180.051 403)" fill="#d082fa"/>
    <g id="Grupo_1113334" data-name="Grupo 1113334" transform="translate(196.865 419.814)">
      <rect id="Rectángulo_407038" data-name="Rectángulo 407038" width="40" height="40" transform="translate(6.186 6.186)" fill="#d7fc7e"/>
      <rect id="Rectángulo_407039" data-name="Rectángulo 407039" width="22.353" height="22.353" transform="translate(18.079 15.01)" fill="#c2fb3b"/>
      <rect id="Rectángulo_407040" data-name="Rectángulo 407040" width="22.353" height="22.353" transform="translate(15.01 15.01)" fill="#b3d8f4"/>
      <g id="Grupo_1113323" data-name="Grupo 1113323" transform="translate(18.079 18.079)">
        <rect id="Rectángulo_407041" data-name="Rectángulo 407041" width="3.152" height="3.152" fill="#ffde55"/>
        <rect id="Rectángulo_407042" data-name="Rectángulo 407042" width="3.152" height="3.152" transform="translate(13.063 13.063)" fill="#ffde55"/>
      </g>
      <g id="Grupo_1113324" data-name="Grupo 1113324" transform="translate(20.124 18.079)">
        <rect id="Rectángulo_407043" data-name="Rectángulo 407043" width="3.152" height="3.152" fill="#78b9eb"/>
        <rect id="Rectángulo_407044" data-name="Rectángulo 407044" width="3.152" height="3.152" transform="translate(13.063 13.063)" fill="#78b9eb"/>
      </g>
      <g id="Grupo_1113325" data-name="Grupo 1113325" transform="translate(0.767 0.767)">
        <rect id="Rectángulo_407045" data-name="Rectángulo 407045" width="5.221" height="2.796" transform="translate(0 7.91)" fill="#ffde55"/>
        <rect id="Rectángulo_407046" data-name="Rectángulo 407046" width="5.221" height="2.796" transform="translate(0 14.354)" fill="#ffde55"/>
        <rect id="Rectángulo_407047" data-name="Rectángulo 407047" width="5.221" height="2.796" transform="translate(0 20.798)" fill="#ffde55"/>
        <rect id="Rectángulo_407048" data-name="Rectángulo 407048" width="5.221" height="2.796" transform="translate(0 27.243)" fill="#ffde55"/>
        <rect id="Rectángulo_407049" data-name="Rectángulo 407049" width="5.221" height="2.796" transform="translate(0 33.687)" fill="#ffde55"/>
        <rect id="Rectángulo_407050" data-name="Rectángulo 407050" width="5.221" height="2.796" transform="translate(0 40.131)" fill="#ffde55"/>
        <rect id="Rectángulo_407051" data-name="Rectángulo 407051" width="2.796" height="5.221" transform="translate(40.131)" fill="#ffde55"/>
        <rect id="Rectángulo_407052" data-name="Rectángulo 407052" width="2.796" height="5.221" transform="translate(33.687)" fill="#ffde55"/>
        <rect id="Rectángulo_407053" data-name="Rectángulo 407053" width="2.796" height="5.221" transform="translate(27.243)" fill="#ffde55"/>
        <rect id="Rectángulo_407054" data-name="Rectángulo 407054" width="2.796" height="5.221" transform="translate(20.798)" fill="#ffde55"/>
        <rect id="Rectángulo_407055" data-name="Rectángulo 407055" width="2.796" height="5.221" transform="translate(14.354)" fill="#ffde55"/>
        <rect id="Rectángulo_407056" data-name="Rectángulo 407056" width="2.796" height="5.221" transform="translate(7.91)" fill="#ffde55"/>
      </g>
      <rect id="Rectángulo_407057" data-name="Rectángulo 407057" width="3.069" height="40.397" transform="translate(5.988 5.988)" fill="#c2fb3b"/>
      <rect id="Rectángulo_407058" data-name="Rectángulo 407058" width="3.069" height="22.353" transform="translate(15.01 15.01)" fill="#78b9eb"/>
      <g id="Grupo_1113326" data-name="Grupo 1113326" transform="translate(0.767 8.677)">
        <rect id="Rectángulo_407059" data-name="Rectángulo 407059" width="1.637" height="3.152" transform="translate(17.311 9.401)" fill="#ffd422"/>
        <rect id="Rectángulo_407060" data-name="Rectángulo 407060" width="1.637" height="3.152" transform="translate(30.375 22.465)" fill="#ffd422"/>
        <rect id="Rectángulo_407061" data-name="Rectángulo 407061" width="3.069" height="2.796" fill="#ffd422"/>
        <rect id="Rectángulo_407062" data-name="Rectángulo 407062" width="3.069" height="2.796" transform="translate(0 12.888)" fill="#ffd422"/>
        <rect id="Rectángulo_407063" data-name="Rectángulo 407063" width="3.069" height="2.796" transform="translate(0 6.444)" fill="#ffd422"/>
        <rect id="Rectángulo_407064" data-name="Rectángulo 407064" width="3.069" height="2.796" transform="translate(0 19.333)" fill="#ffd422"/>
        <rect id="Rectángulo_407065" data-name="Rectángulo 407065" width="3.069" height="2.796" transform="translate(0 32.221)" fill="#ffd422"/>
        <rect id="Rectángulo_407066" data-name="Rectángulo 407066" width="3.069" height="2.796" transform="translate(0 25.777)" fill="#ffd422"/>
      </g>
      <g id="Grupo_1113327" data-name="Grupo 1113327" transform="translate(46.388 8.677)">
        <rect id="Rectángulo_407067" data-name="Rectángulo 407067" width="5.221" height="2.796" fill="#ffde55"/>
        <rect id="Rectángulo_407068" data-name="Rectángulo 407068" width="5.221" height="2.796" transform="translate(0 6.444)" fill="#ffde55"/>
        <rect id="Rectángulo_407069" data-name="Rectángulo 407069" width="5.221" height="2.796" transform="translate(0 12.888)" fill="#ffde55"/>
        <rect id="Rectángulo_407070" data-name="Rectángulo 407070" width="5.221" height="2.796" transform="translate(0 19.333)" fill="#ffde55"/>
        <rect id="Rectángulo_407071" data-name="Rectángulo 407071" width="5.221" height="2.796" transform="translate(0 25.777)" fill="#ffde55"/>
        <rect id="Rectángulo_407072" data-name="Rectángulo 407072" width="5.221" height="2.796" transform="translate(0 32.221)" fill="#ffde55"/>
      </g>
      <g id="Grupo_1113328" data-name="Grupo 1113328" transform="translate(8.677 0.767)">
        <rect id="Rectángulo_407073" data-name="Rectángulo 407073" width="3.069" height="2.796" transform="translate(37.711 7.91)" fill="#ffd422"/>
        <rect id="Rectángulo_407074" data-name="Rectángulo 407074" width="3.069" height="2.796" transform="translate(37.711 20.798)" fill="#ffd422"/>
        <rect id="Rectángulo_407075" data-name="Rectángulo 407075" width="3.069" height="2.796" transform="translate(37.711 14.354)" fill="#ffd422"/>
        <rect id="Rectángulo_407076" data-name="Rectángulo 407076" width="3.069" height="2.796" transform="translate(37.711 27.243)" fill="#ffd422"/>
        <rect id="Rectángulo_407077" data-name="Rectángulo 407077" width="3.069" height="2.796" transform="translate(37.711 40.131)" fill="#ffd422"/>
        <rect id="Rectángulo_407078" data-name="Rectángulo 407078" width="3.069" height="2.796" transform="translate(37.711 33.687)" fill="#ffd422"/>
        <rect id="Rectángulo_407079" data-name="Rectángulo 407079" width="1.338" height="5.221" transform="translate(6.444)" fill="#ffd422"/>
        <rect id="Rectángulo_407080" data-name="Rectángulo 407080" width="1.338" height="5.221" transform="translate(12.888)" fill="#ffd422"/>
        <rect id="Rectángulo_407081" data-name="Rectángulo 407081" width="1.338" height="5.221" fill="#ffd422"/>
        <rect id="Rectángulo_407082" data-name="Rectángulo 407082" width="1.338" height="5.221" transform="translate(19.333)" fill="#ffd422"/>
        <rect id="Rectángulo_407083" data-name="Rectángulo 407083" width="1.338" height="5.221" transform="translate(25.777)" fill="#ffd422"/>
        <rect id="Rectángulo_407084" data-name="Rectángulo 407084" width="1.338" height="5.221" transform="translate(32.221)" fill="#ffd422"/>
      </g>
      <g id="Grupo_1113329" data-name="Grupo 1113329" transform="translate(8.677 46.384)">
        <rect id="Rectángulo_407085" data-name="Rectángulo 407085" width="2.796" height="5.221" transform="translate(32.221)" fill="#ffde55"/>
        <rect id="Rectángulo_407086" data-name="Rectángulo 407086" width="2.796" height="5.221" transform="translate(25.777)" fill="#ffde55"/>
        <rect id="Rectángulo_407087" data-name="Rectángulo 407087" width="2.796" height="5.221" transform="translate(19.333)" fill="#ffde55"/>
        <rect id="Rectángulo_407088" data-name="Rectángulo 407088" width="2.796" height="5.221" transform="translate(12.888)" fill="#ffde55"/>
        <rect id="Rectángulo_407089" data-name="Rectángulo 407089" width="2.796" height="5.221" transform="translate(6.444)" fill="#ffde55"/>
        <rect id="Rectángulo_407090" data-name="Rectángulo 407090" width="2.796" height="5.221" fill="#ffde55"/>
      </g>
      <g id="Grupo_1113330" data-name="Grupo 1113330" transform="translate(8.677 46.384)">
        <rect id="Rectángulo_407091" data-name="Rectángulo 407091" width="1.338" height="5.221" transform="translate(6.444)" fill="#ffd422"/>
        <rect id="Rectángulo_407092" data-name="Rectángulo 407092" width="1.338" height="5.221" transform="translate(12.888)" fill="#ffd422"/>
        <rect id="Rectángulo_407093" data-name="Rectángulo 407093" width="1.338" height="5.221" fill="#ffd422"/>
        <rect id="Rectángulo_407094" data-name="Rectángulo 407094" width="1.338" height="5.221" transform="translate(19.333)" fill="#ffd422"/>
        <rect id="Rectángulo_407095" data-name="Rectángulo 407095" width="1.338" height="5.221" transform="translate(25.777)" fill="#ffd422"/>
        <rect id="Rectángulo_407096" data-name="Rectángulo 407096" width="1.338" height="5.221" transform="translate(32.221)" fill="#ffd422"/>
      </g>
      <g id="Grupo_1113331" data-name="Grupo 1113331">
        <path id="Trazado_901079" data-name="Trazado 901079" d="M173.92,169.235h-4.686v4.686h4.686Zm-1.534,3.152h-1.617v-1.617h1.617Z" transform="translate(-151.923 -151.924)" fill="#1d1d1f"/>
        <path id="Trazado_901080" data-name="Trazado 901080" d="M296.953,301.639h4.686v-4.686h-4.686Zm1.534-3.152H300.1V300.1h-1.618Z" transform="translate(-266.578 -266.578)" fill="#1d1d1f"/>
        <rect id="Rectángulo_407097" data-name="Rectángulo 407097" width="1.534" height="1.534" transform="translate(37.709 42.832)" fill="#1d1d1f"/>
        <rect id="Rectángulo_407098" data-name="Rectángulo 407098" width="1.534" height="1.534" transform="translate(42.823 42.832)" fill="#1d1d1f"/>
        <rect id="Rectángulo_407099" data-name="Rectángulo 407099" width="1.534" height="1.534" transform="translate(40.266 42.832)" fill="#1d1d1f"/>
        <rect id="Rectángulo_407100" data-name="Rectángulo 407100" width="1.534" height="1.534" transform="translate(42.823 40.188)" fill="#1d1d1f"/>
        <rect id="Rectángulo_407101" data-name="Rectángulo 407101" width="1.534" height="1.534" transform="translate(37.709 40.188)" fill="#1d1d1f"/>
        <rect id="Rectángulo_407102" data-name="Rectángulo 407102" width="1.534" height="1.534" transform="translate(40.266 40.188)" fill="#1d1d1f"/>
        <rect id="Rectángulo_407103" data-name="Rectángulo 407103" width="1.534" height="1.534" transform="translate(26.856 25.17)" fill="#1d1d1f"/>
        <rect id="Rectángulo_407104" data-name="Rectángulo 407104" width="1.534" height="1.534" transform="translate(24.299 25.17)" fill="#1d1d1f"/>
        <rect id="Rectángulo_407105" data-name="Rectángulo 407105" width="1.534" height="1.534" transform="translate(21.742 25.17)" fill="#1d1d1f"/>
        <rect id="Rectángulo_407106" data-name="Rectángulo 407106" width="1.534" height="1.534" transform="translate(29.413 25.17)" fill="#1d1d1f"/>
        <path id="Trazado_901081" data-name="Trazado 901081" d="M52.372,12.241V7.91H47.151V5.221H44.462V0h-4.33V5.221H38.018V0h-4.33V5.221H31.573V0h-4.33V5.221H25.129V0H20.8V5.226H18.685V0h-4.33V5.224H12.241V0H7.91V5.222H5.221V7.91H0v4.33H5.221v2.114H0v4.33H5.221V20.8H0v4.33H5.221v2.114H0v4.33H5.221v2.114H0v4.33H5.221v2.114H0v4.33H5.221v2.684H7.91v5.226h4.33V47.147h2.114v5.225h4.33V47.148H20.8v5.224h4.33V47.149h2.114v5.223h4.33V47.149h2.114v5.222h4.33V47.15h2.114v5.222h4.33V47.151h2.689V44.462h5.221v-4.33H47.151v-.264l-1.534-.005v5.755H6.755V30.727h0V29.2h0V6.755H45.617V38.334l1.534.005v-.322h5.221v-4.33H47.151V31.573h5.221v-4.33H47.151V25.129h5.221V20.8H47.151V18.685h5.221v-4.33H47.151V12.241h5.221Zm-5.22-2.8h3.686v1.262H47.152Zm-5.486-7.91h1.262V5.221H41.666Zm-6.444,0h1.262V5.221H35.222Zm-6.444,0h1.262V5.221H28.777Zm-12.888,0H17.15V5.221H15.889V1.534Zm-6.444,0h1.262V5.221H9.445ZM5.221,10.706H1.534V9.445H5.221Zm0,6.444H1.534V15.889H5.221Zm0,6.444H1.534V22.333H5.221Zm0,12.888H1.534V35.222H5.221Zm0,6.444H1.534V41.666H5.221Zm5.486,7.91H9.445V47.152h1.262v3.686Zm6.444,0H15.889V47.152h1.262v3.686Zm6.444,0H22.333V47.152h1.262v3.686Zm6.444,0H28.777V47.152h1.262Zm6.444,0H35.222V47.152h1.262Zm6.444,0H41.666V47.152h1.262Zm4.224-9.172h3.686v1.262H47.152ZM5.221,30.039H1.534V28.777H5.221Zm17.113-28.5h1.262V5.221H22.333V1.534ZM47.152,35.222h3.686v1.262H47.152Zm0-6.444h3.686v1.262H47.152Zm0-6.444h3.686v1.262H47.152Zm0-6.444h3.686V17.15H47.152Z" fill="#1d1d1f"/>
        <path id="Trazado_901082" data-name="Trazado 901082" d="M139.033,132.034h-3.1v-2.874l3.1,0v-1.534h-3.1v-2.874l3.1,0v-1.534h-3.1V120.35l3.1,0V118.82h-3.1v-2.874l3.1,0v-1.534h-3.1v-2.367h-2.368v-3.093l-1.534-.005v3.1h-2.87v-3.093l-1.534-.005v3.1h-2.87v-3.093l-1.534-.005v3.1h-2.87v-3.093l-1.534-.005v3.1h-2.87v-3.093l-1.534-.005v3.1h-2.367v2.367h-3.093l-.005,1.529,3.1,0v2.871h-3.093l-.005,1.529,3.1,0v2.871h-3.093l-.005,1.529,3.1,0v2.871h-3.093l-.005,1.529,3.1,0v2.871h-3.093l-.005,1.529,3.1,0v2.368h2.367v3.093l1.534.005v-3.1h2.87v3.093l1.534.005v-3.1h2.87v3.093l1.534.005v-3.1h2.87v3.093l1.534.005v-3.1h2.87v3.093l1.534.005v-3.1h2.368v-2.372l3.1,0v-1.534ZM134.4,134.4H113.582V113.582H134.4Z" transform="translate(-97.806 -97.806)" fill="#1d1d1f"/>
      </g>
      <g id="Grupo_1113332" data-name="Grupo 1113332" transform="translate(34.228 16.98)">
        <rect id="Rectángulo_407107" data-name="Rectángulo 407107" width="1.534" height="6.956" transform="translate(0 5.114)" fill="#fff"/>
        <rect id="Rectángulo_407108" data-name="Rectángulo 407108" width="1.534" height="1.534" transform="translate(0 2.557)" fill="#fff"/>
        <rect id="Rectángulo_407109" data-name="Rectángulo 407109" width="1.534" height="1.534" fill="#fff"/>
      </g>
      <path id="Trazado_901083" data-name="Trazado 901083" d="M169.83,330.859l5.149.005V329.33h-5.144Z" transform="translate(-152.458 -295.643)" fill="#1d1d1f"/>
      <g id="Grupo_1113333" data-name="Grupo 1113333" transform="translate(17.098 7.802)">
        <rect id="Rectángulo_407110" data-name="Rectángulo 407110" width="1.534" height="1.534" transform="translate(10.426)" fill="#fff"/>
        <rect id="Rectángulo_407111" data-name="Rectángulo 407111" width="13.86" height="1.534" transform="translate(12.984)" fill="#fff"/>
        <rect id="Rectángulo_407112" data-name="Rectángulo 407112" width="1.534" height="1.534" transform="translate(7.869)" fill="#fff"/>
        <rect id="Rectángulo_407113" data-name="Rectángulo 407113" width="1.534" height="1.534" transform="translate(9.377 35.03)" fill="#fff"/>
        <rect id="Rectángulo_407114" data-name="Rectángulo 407114" width="1.534" height="1.534" transform="translate(6.82 35.03)" fill="#fff"/>
        <rect id="Rectángulo_407115" data-name="Rectángulo 407115" width="5.796" height="1.534" transform="translate(0 35.03)" fill="#fff"/>
      </g>
      <path id="Trazado_901084" data-name="Trazado 901084" d="M81.7,391.832v-4.407l-1.534-.005v4.407Z" transform="translate(-71.969 -347.791)" fill="#1d1d1f"/>
    </g>
  </g>
</svg>
