<svg xmlns="http://www.w3.org/2000/svg" width="117.888" height="34" viewBox="0 0 117.888 34">
  <g id="Grupo_1113188" data-name="Grupo 1113188" transform="translate(-801.207 -2837)">
    <line id="Línea_604" data-name="Línea 604" x2="36" y2="0.5" transform="translate(811.551 2861)" fill="none" stroke="#8a9bb1" stroke-linecap="round" stroke-width="2"/>
    <line id="Línea_605" data-name="Línea 605" x2="36" y2="0.5" transform="translate(811.551 2845.5)" fill="none" stroke="#8a9bb1" stroke-linecap="round" stroke-width="2"/>
    <path id="Trazado_901106" data-name="Trazado 901106" d="M1.593,0a2.467,2.467,0,0,1-.165-.724A2.62,2.62,0,0,1-.527.127,2.424,2.424,0,0,1-2.193-.448,1.859,1.859,0,0,1-2.844-1.9a1.942,1.942,0,0,1,.816-1.666A3.846,3.846,0,0,1,.267-4.164H1.409V-4.7a1.319,1.319,0,0,0-.368-.981A1.48,1.48,0,0,0-.044-6.049,1.712,1.712,0,0,0-1.1-5.732a.935.935,0,0,0-.425.768H-2.7a1.621,1.621,0,0,1,.365-.993,2.491,2.491,0,0,1,.99-.759A3.331,3.331,0,0,1,.025-7a2.715,2.715,0,0,1,1.86.594,2.141,2.141,0,0,1,.7,1.635v3.161A3.865,3.865,0,0,0,2.825-.1V0ZM-.355-.9A2.064,2.064,0,0,0,.692-1.181a1.728,1.728,0,0,0,.717-.743V-3.333H.489q-2.158,0-2.158,1.263a1.069,1.069,0,0,0,.368.863A1.415,1.415,0,0,0-.355-.9Z" transform="translate(804.051 2847)" fill="#12263f"/>
    <path id="Trazado_901107" data-name="Trazado 901107" d="M3.056-3.358a4.084,4.084,0,0,1-.724,2.53A2.312,2.312,0,0,1,.39.127a2.394,2.394,0,0,1-2.012-.92L-1.679,0H-2.758V-9.75h1.174v3.637A2.381,2.381,0,0,1,.378-7a2.326,2.326,0,0,1,1.965.946,4.206,4.206,0,0,1,.714,2.59ZM1.882-3.491a3.173,3.173,0,0,0-.463-1.854A1.534,1.534,0,0,0,.086-6,1.724,1.724,0,0,0-1.584-4.919v2.971A1.772,1.772,0,0,0,.1-.87a1.526,1.526,0,0,0,1.314-.654A3.374,3.374,0,0,0,1.882-3.491Z" transform="translate(804.051 2865)" fill="#12263f"/>
    <path id="Trazado_901108" data-name="Trazado 901108" d="M9.154,11.038a.931.931,0,0,0-.386-.8,3.718,3.718,0,0,0-1.347-.489A6.367,6.367,0,0,1,5.9,9.261a2.169,2.169,0,0,1-.834-.684,1.635,1.635,0,0,1-.27-.943A1.919,1.919,0,0,1,5.562,6.1a3,3,0,0,1,1.965-.629,3.091,3.091,0,0,1,2.041.649,2.063,2.063,0,0,1,.783,1.661H9.079a1.142,1.142,0,0,0-.441-.9,1.652,1.652,0,0,0-1.111-.376,1.729,1.729,0,0,0-1.08.3.947.947,0,0,0-.39.786.767.767,0,0,0,.362.69,4.458,4.458,0,0,0,1.309.444,6.821,6.821,0,0,1,1.535.506,2.239,2.239,0,0,1,.872.708,1.74,1.74,0,0,1,.284,1.008,1.893,1.893,0,0,1-.793,1.589,3.326,3.326,0,0,1-2.058.6A3.725,3.725,0,0,1,6,12.822a2.557,2.557,0,0,1-1.07-.878,2.117,2.117,0,0,1-.386-1.22H5.8a1.309,1.309,0,0,0,.509,1.008,1.976,1.976,0,0,0,1.254.373,2.039,2.039,0,0,0,1.152-.291A.893.893,0,0,0,9.154,11.038Z" transform="translate(908.676 2845)" fill="#12263f"/>
    <line id="Línea_606" data-name="Línea 606" x2="69.125" transform="translate(841.488 2854)" fill="none" stroke="#8a9bb1" stroke-linecap="round" stroke-width="2"/>
    <g id="Polígono_3" data-name="Polígono 3" transform="translate(893.051 2838) rotate(90)" fill="#c7e0ff">
      <path d="M 31.81791877746582 16.5 L 1.182081818580627 16.5 L 16.5 0.7179024219512939 L 31.81791877746582 16.5 Z" stroke="none"/>
      <path d="M 16.5 1.435805320739746 L 2.364164352416992 16 L 30.63583564758301 16 L 16.5 1.435805320739746 M 16.5 0 L 33 17 L 0 17 L 16.5 0 Z" stroke="none" fill="#8a9bb1"/>
    </g>
    <g id="Elipse_11645" data-name="Elipse 11645" transform="translate(892.439 2851)" fill="#c7e0ff" stroke="#707070" stroke-width="1">
      <circle cx="3.5" cy="3.5" r="3.5" stroke="none"/>
      <circle cx="3.5" cy="3.5" r="3" fill="none"/>
    </g>
    <g id="Trazado_900557" data-name="Trazado 900557" transform="translate(820.676 2837)" fill="#c7e0ff">
      <path d="M 36.82077407836914 32.54366683959961 C 36.17082595825195 32.54366683959961 35.77689361572266 32.50316619873047 35.77299499511719 32.50275802612305 L 35.74701309204102 32.50003814697266 L 35.72048568725586 32.49999618530273 L 0.5000043511390686 32.49999618530273 L 0.5000043511390686 0.4999978840351105 L 35.70714950561523 0.4999978840351105 C 35.93320083618164 0.513043224811554 39.89226150512695 0.772884726524353 43.72302627563477 2.954547882080078 C 46.00548553466797 4.254447937011719 47.80013275146484 5.976068019866943 49.05712509155273 8.071598052978516 C 50.6328125 10.6984281539917 51.37069320678711 13.93530750274658 51.25026321411133 17.69232749938965 C 51.06122589111328 23.58980751037598 49.01759338378906 27.82225799560547 45.17615509033203 30.27210807800293 C 42.07704544067383 32.24855804443359 38.61100387573242 32.54366683959961 36.82077407836914 32.54366683959961 Z" stroke="none"/>
      <path d="M 0.9999961853027344 0.9999961853027344 L 0.9999961853027344 31.99999809265137 L 35.77354431152344 32.00016784667969 L 35.82470703125 32.00544738769531 C 35.82841491699219 32.00582885742188 36.20244598388672 32.04366683959961 36.82077407836914 32.04366683959961 C 38.55652618408203 32.04366683959961 41.91519546508789 31.75874710083008 44.90730285644531 29.85054779052734 C 48.60114288330078 27.49481773376465 50.56708526611328 23.39881896972656 50.75051498413086 17.67630767822266 C 50.86754608154297 14.02552795410156 50.15717315673828 10.88663864135742 48.63913345336914 8.346817016601562 C 47.43194580078125 6.327068328857422 45.70485305786133 4.664838790893555 43.50583648681641 3.406307220458984 C 39.81856918334961 1.296028137207031 35.99197387695312 1.01861572265625 35.69259262084961 0.9999961853027344 L 0.9999961853027344 0.9999961853027344 M -3.814697265625e-06 -3.814697265625e-06 L 35.72048187255859 -3.814697265625e-06 C 35.72048187255859 -3.814697265625e-06 52.29296493530273 0.7695274353027344 51.75000381469727 17.70834732055664 C 51.20703506469727 34.64715576171875 35.72048187255859 32.99999618530273 35.72048187255859 32.99999618530273 L -3.814697265625e-06 32.99999618530273 L -3.814697265625e-06 -3.814697265625e-06 Z" stroke="none" fill="#8a9bb1"/>
    </g>
  </g>
</svg>
