<svg xmlns="http://www.w3.org/2000/svg" width="69" height="69" viewBox="0 0 69 69">
  <g id="Grupo_1113318" data-name="Grupo 1113318" transform="translate(-205.051 -411)">
    <circle id="Elipse_11638" data-name="Elipse 11638" cx="34.5" cy="34.5" r="34.5" transform="translate(205.051 411)" fill="#fff"/>
    <g id="pcb_board" data-name="pcb board" transform="translate(218.019 424.969)">
      <path id="Trazado_901060" data-name="Trazado 901060" d="M38.157,33.6a2.6,2.6,0,0,1,2.6-2.6V5.6a2.6,2.6,0,0,0-2.6-2.6H5.6A2.6,2.6,0,0,0,3,5.6V7.557a2.6,2.6,0,1,1,0,5.208V38.157a2.6,2.6,0,0,0,2.6,2.6H38.157a2.6,2.6,0,0,0,2.6-2.6V36.2A2.6,2.6,0,0,1,38.157,33.6Z" transform="translate(-0.349 -0.349)" fill="#66bb6a"/>
      <path id="Trazado_901061" data-name="Trazado 901061" d="M40.774,31V5.6A2.6,2.6,0,0,0,38.17,3h-.144C35.089,36.913,11.091,38.746,3.036,38.392a2.6,2.6,0,0,0,2.581,2.369H38.17a2.6,2.6,0,0,0,2.6-2.6V36.2a2.6,2.6,0,1,1,0-5.208Z" transform="translate(-0.362 -0.349)" fill="#43a047"/>
      <ellipse id="Elipse_11691" data-name="Elipse 11691" cx="1.19" cy="1.785" rx="1.19" ry="1.785" transform="translate(10.824 4.875)" fill="#ffee58"/>
      <ellipse id="Elipse_11692" data-name="Elipse 11692" cx="1.19" cy="1.785" rx="1.19" ry="1.785" transform="translate(27.48 34.618)" fill="#ffee58"/>
      <circle id="Elipse_11693" data-name="Elipse 11693" cx="1.19" cy="1.19" r="1.19" transform="translate(8.444 31.049)" fill="#ffee58"/>
      <ellipse id="Elipse_11694" data-name="Elipse 11694" cx="1.785" cy="1.19" rx="1.785" ry="1.19" transform="translate(4.875 21.532)" fill="#ffee58"/>
      <ellipse id="Elipse_11695" data-name="Elipse 11695" cx="1.19" cy="1.785" rx="1.19" ry="1.785" transform="translate(7.255 12.014)" fill="#ffee58"/>
      <circle id="Elipse_11696" data-name="Elipse 11696" cx="1.19" cy="1.19" r="1.19" transform="translate(32.239 31.049)" fill="#ffee58"/>
      <circle id="Elipse_11697" data-name="Elipse 11697" cx="1.785" cy="1.785" r="1.785" transform="translate(34.618 12.014)" fill="#ffee58"/>
      <ellipse id="Elipse_11698" data-name="Elipse 11698" cx="1.785" cy="1.19" rx="1.785" ry="1.19" transform="translate(34.618 21.532)" fill="#ffee58"/>
      <circle id="Elipse_11699" data-name="Elipse 11699" cx="1.19" cy="1.19" r="1.19" transform="translate(29.86 10.824)" fill="#ffee58"/>
      <rect id="Rectángulo_407037" data-name="Rectángulo 407037" width="9.518" height="9.518" transform="translate(16.773 16.773)" fill="#78909c"/>
      <path id="Trazado_901062" data-name="Trazado 901062" d="M32.445,24c-.333,7.564-6.42,8.4-8.445,8.467v1.95H34.417V24Z" transform="translate(-7.677 -7.677)" fill="#546e7a"/>
      <path id="Trazado_901063" data-name="Trazado 901063" d="M28.953,28.3h-1.3a.651.651,0,0,1,0-1.3h1.3a.651.651,0,0,1,0,1.3Z" transform="translate(-8.724 -8.724)" fill="#fff"/>
      <circle id="Elipse_11700" data-name="Elipse 11700" cx="0.595" cy="0.595" r="0.595" transform="translate(22.721 17.962)" fill="#fff"/>
      <path id="Trazado_901064" data-name="Trazado 901064" d="M40.412,31.3a.651.651,0,0,0,.651-.651V5.255A3.259,3.259,0,0,0,37.808,2H5.255A3.259,3.259,0,0,0,2,5.255V7.208a.651.651,0,0,0,.651.651,1.953,1.953,0,1,1,0,3.906A.651.651,0,0,0,2,12.417V37.808a3.259,3.259,0,0,0,3.255,3.255H37.808a3.259,3.259,0,0,0,3.255-3.255V35.855a.651.651,0,0,0-.651-.651,1.953,1.953,0,0,1,0-3.906Zm-3.255-28h.651a1.955,1.955,0,0,1,1.953,1.953v.651H38.729L37.157,4.335Zm-2.6,0h1.3V4.6a.651.651,0,0,0,.191.46L38,7.018a.651.651,0,0,0,.46.191h1.3v1.3H37.427L34.553,5.637ZM27.391,7.208V3.3h1.3V7.619l-3.749,4.375a.648.648,0,0,0-.157.424v3.255h-1.3V12.007l3.749-4.375a.648.648,0,0,0,.157-.424ZM16.974,26.089V16.974h9.115v9.115ZM24.787,6.557V3.3h1.3V6.967L22.34,11.342a.648.648,0,0,0-.157.424v3.906h-1.3V11.356L24.63,6.981A.648.648,0,0,0,24.787,6.557ZM5.906,39.761H5.255A1.955,1.955,0,0,1,3.3,37.808v-.651H4.335l1.572,1.572Zm2.6,0h-1.3v-1.3A.651.651,0,0,0,7.018,38L5.065,36.046a.651.651,0,0,0-.46-.191H3.3v-1.3H5.637l2.874,2.874ZM13.068,35.2v4.557H9.813v-2.6a.651.651,0,0,0-.191-.46L6.367,33.442a.651.651,0,0,0-.46-.191H3.3V13a3.256,3.256,0,0,0,0-6.38V5.255A1.955,1.955,0,0,1,5.255,3.3h18.23V6.316l-3.749,4.375a.648.648,0,0,0-.157.424v4.557h-1.3V13.719a.65.65,0,0,0-.387-.595l-5.473-2.433v-2.3a1.953,1.953,0,1,0-1.3,0v2.724a.65.65,0,0,0,.387.595l5.473,2.433v1.53h-.651a.651.651,0,0,0-.651.651v.651H13.916l-1.789-1.193a.651.651,0,1,0-.722,1.083l1.953,1.3a.652.652,0,0,0,.361.109h1.953v1.3H11.332l-2.17-1.628v-2.4a1.953,1.953,0,1,0-1.3,0v2.724a.65.65,0,0,0,.261.521l2.6,1.953a.649.649,0,0,0,.39.13h4.557v1.3H8.391a1.953,1.953,0,1,0,0,1.3h7.282v1.3H12.417a.649.649,0,0,0-.39.13l-2.6,1.953a.65.65,0,0,0-.261.521v2.724a1.953,1.953,0,1,0,1.3,0v-2.4l2.17-1.628h3.038v.651a.651.651,0,0,0,.651.651h.651v3.014L13.225,34.78a.648.648,0,0,0-.157.424Zm-1.3-28a.651.651,0,1,1,.651-.651.651.651,0,0,1-.651.651ZM8.511,14.37a.651.651,0,1,1,.651-.651A.651.651,0,0,1,8.511,14.37Zm-1.3,8.464a.651.651,0,1,1-.651-.651.651.651,0,0,1,.651.651Zm3.255,9.115a.651.651,0,1,1-.651-.651A.651.651,0,0,1,10.464,31.949Zm5.208,3.906v3.906h-1.3V35.445l3.749-4.375a.648.648,0,0,0,.157-.424V27.391h1.3v3.665l-3.749,4.375a.648.648,0,0,0-.157.424Zm2.6.651v3.255h-1.3V36.1l3.749-4.375a.648.648,0,0,0,.157-.424V27.391h1.3v4.316l-3.749,4.375a.648.648,0,0,0-.157.424Zm21.485-.065v1.368a1.955,1.955,0,0,1-1.953,1.953H19.579V36.747l3.749-4.375a.648.648,0,0,0,.157-.424V27.391h1.3v3.255a.652.652,0,0,0,.316.558l2.939,1.764v1.7a1.953,1.953,0,1,0,1.3,0V32.6a.652.652,0,0,0-.316-.558l-2.939-1.764V27.391h.651a.651.651,0,0,0,.651-.651v-.651h4.232l1.628,2.17v1.856a1.953,1.953,0,1,0,1.3,0V28.042a.652.652,0,0,0-.13-.391l-1.953-2.6a.65.65,0,0,0-.521-.26H27.391v-1.3h7.282a1.953,1.953,0,1,0,0-1.3H27.391v-1.3h5.86a.651.651,0,0,0,.407-.143l3.255-2.6a.65.65,0,0,0,.244-.508V15.552a1.953,1.953,0,1,0-1.3,0v1.76l-2.832,2.266H27.391v-1.3H31.3a.651.651,0,0,0,.651-.651V13.6a1.953,1.953,0,1,0-1.3,0v3.375H27.391v-.651a.651.651,0,0,0-.651-.651h-.651V12.658l3.749-4.375A.648.648,0,0,0,30,7.86V3.3h3.255v2.6a.651.651,0,0,0,.191.46L36.7,9.622a.651.651,0,0,0,.46.191h2.6V30.061a3.256,3.256,0,0,0,0,6.38Zm-11.068-.586a.651.651,0,1,1-.651.651.651.651,0,0,1,.651-.651ZM33.9,31.3a.651.651,0,1,1-.651.651A.651.651,0,0,1,33.9,31.3Zm1.953-8.464a.651.651,0,1,1,.651.651A.651.651,0,0,1,35.855,22.834Zm0-9.115a.651.651,0,1,1,.651.651A.651.651,0,0,1,35.855,13.719Zm-5.208-1.953a.651.651,0,1,1,.651.651.651.651,0,0,1-.651-.651Z" transform="translate(0)" fill="#080633"/>
    </g>
  </g>
</svg>
