<svg xmlns="http://www.w3.org/2000/svg" width="274.367" height="59" viewBox="0 0 274.367 59">
  <g id="Grupo_1113336" data-name="Grupo 1113336" transform="translate(-243.988 -3138)">
    <line id="Línea_586" data-name="Línea 586" x2="40" transform="translate(308.551 3166.5)" fill="none" stroke="#8a9bb1" stroke-linecap="round" stroke-width="2"/>
    <line id="Línea_590" data-name="Línea 590" x2="36" y2="0.5" transform="translate(255.551 3173)" fill="none" stroke="#8a9bb1" stroke-linecap="round" stroke-width="2"/>
    <line id="Línea_591" data-name="Línea 591" x2="36" y2="0.5" transform="translate(255.551 3157.5)" fill="none" stroke="#8a9bb1" stroke-linecap="round" stroke-width="2"/>
    <line id="Línea_592" data-name="Línea 592" x2="36" y2="0.5" transform="translate(425.051 3149)" fill="none" stroke="#8a9bb1" stroke-linecap="round" stroke-width="2"/>
    <line id="Línea_593" data-name="Línea 593" x2="36" y2="0.5" transform="translate(425.051 3185)" fill="none" stroke="#8a9bb1" stroke-linecap="round" stroke-width="2"/>
    <line id="Línea_587" data-name="Línea 587" x2="53" transform="translate(461.551 3165.5)" fill="none" stroke="#8a9bb1" stroke-linecap="round" stroke-width="2"/>
    <line id="Línea_589" data-name="Línea 589" y1="6" x2="8" transform="translate(482.051 3168)" fill="none" stroke="#8a9bb1" stroke-linecap="round" stroke-width="2"/>
    <g id="Rectángulo_406754" data-name="Rectángulo 406754" transform="translate(440.051 3138)" fill="#fff" stroke="#8a9bb1" stroke-width="3">
      <rect width="42" height="59" stroke="none"/>
      <rect x="1.5" y="1.5" width="39" height="56" fill="none"/>
    </g>
    <path id="Trazado_901091" data-name="Trazado 901091" d="M1.936-2.418H-1.936L-2.806,0H-4.062L-.533-9.242H.533L4.069,0H2.818Zm-3.5-1H1.574L0-7.738Z" transform="translate(248.051 3159)" fill="#12263f"/>
    <path id="Trazado_901092" data-name="Trazado 901092" d="M-2.974,0V-9.242H.048a3.507,3.507,0,0,1,2.263.622,2.242,2.242,0,0,1,.759,1.841A1.877,1.877,0,0,1,2.7-5.634a2.387,2.387,0,0,1-1,.771,2.143,2.143,0,0,1,1.184.8,2.286,2.286,0,0,1,.435,1.4A2.472,2.472,0,0,1,2.51-.711,3.334,3.334,0,0,1,.232,0Zm1.219-4.323V-1H.257A1.938,1.938,0,0,0,1.6-1.438a1.549,1.549,0,0,0,.492-1.216q0-1.669-1.815-1.669Zm0-.978H.086a1.93,1.93,0,0,0,1.279-.4,1.344,1.344,0,0,0,.479-1.088A1.321,1.321,0,0,0,1.4-7.9,2.182,2.182,0,0,0,.048-8.246h-1.8Z" transform="translate(248.051 3177)" fill="#12263f"/>
    <path id="Trazado_901094" data-name="Trazado 901094" d="M-13.952-4.12a5.731,5.731,0,0,1-2.282-1.108,2.116,2.116,0,0,1-.714-1.622,2.236,2.236,0,0,1,.873-1.806,3.469,3.469,0,0,1,2.269-.714,3.786,3.786,0,0,1,1.7.368,2.792,2.792,0,0,1,1.155,1.016,2.6,2.6,0,0,1,.409,1.416h-1.225A1.69,1.69,0,0,0-12.3-7.892a2.168,2.168,0,0,0-1.5-.481,2.22,2.22,0,0,0-1.406.4,1.326,1.326,0,0,0-.5,1.1,1.193,1.193,0,0,0,.479.957,4.7,4.7,0,0,0,1.631.715,7.569,7.569,0,0,1,1.8.715,2.736,2.736,0,0,1,.965.911,2.325,2.325,0,0,1,.314,1.225,2.159,2.159,0,0,1-.876,1.8,3.735,3.735,0,0,1-2.342.676A4.344,4.344,0,0,1-15.52-.238a2.991,2.991,0,0,1-1.273-1,2.44,2.44,0,0,1-.448-1.441h1.225A1.592,1.592,0,0,0-15.4-1.355a2.606,2.606,0,0,0,1.654.486,2.4,2.4,0,0,0,1.479-.394,1.278,1.278,0,0,0,.514-1.073,1.255,1.255,0,0,0-.476-1.051A5.489,5.489,0,0,0-13.952-4.12ZM-4.907,0a2.467,2.467,0,0,1-.165-.724A2.62,2.62,0,0,1-7.027.127,2.424,2.424,0,0,1-8.693-.448,1.859,1.859,0,0,1-9.344-1.9a1.942,1.942,0,0,1,.816-1.666,3.846,3.846,0,0,1,2.295-.594h1.143V-4.7a1.319,1.319,0,0,0-.368-.981,1.48,1.48,0,0,0-1.085-.365A1.712,1.712,0,0,0-7.6-5.732a.935.935,0,0,0-.425.768H-9.2a1.621,1.621,0,0,1,.365-.993,2.491,2.491,0,0,1,.99-.759A3.331,3.331,0,0,1-6.475-7a2.715,2.715,0,0,1,1.86.594,2.141,2.141,0,0,1,.7,1.635v3.161A3.865,3.865,0,0,0-3.675-.1V0ZM-6.855-.9a2.064,2.064,0,0,0,1.047-.286,1.728,1.728,0,0,0,.717-.743V-3.333h-.92q-2.158,0-2.158,1.263a1.069,1.069,0,0,0,.368.863A1.415,1.415,0,0,0-6.855-.9ZM-.8,0H-1.974V-9.75H-.8ZM2.355,0H1.181V-6.868H2.355ZM1.085-8.69a.7.7,0,0,1,.175-.482.655.655,0,0,1,.517-.2.666.666,0,0,1,.521.2.694.694,0,0,1,.178.482.671.671,0,0,1-.178.476.678.678,0,0,1-.521.19.667.667,0,0,1-.517-.19A.678.678,0,0,1,1.085-8.69Zm2.863,5.2A4.023,4.023,0,0,1,4.7-6.033,2.369,2.369,0,0,1,6.659-7a2.382,2.382,0,0,1,1.911.825V-9.75H9.744V0H8.665L8.607-.736A2.391,2.391,0,0,1,6.646.127,2.346,2.346,0,0,1,4.7-.851,4.069,4.069,0,0,1,3.948-3.4Zm1.174.133A3.046,3.046,0,0,0,5.6-1.53a1.56,1.56,0,0,0,1.333.66,1.713,1.713,0,0,0,1.631-1V-5.027A1.726,1.726,0,0,0,6.951-6,1.567,1.567,0,0,0,5.6-5.332,3.354,3.354,0,0,0,5.123-3.358ZM15.806,0a2.467,2.467,0,0,1-.165-.724,2.62,2.62,0,0,1-1.955.851,2.424,2.424,0,0,1-1.666-.574A1.859,1.859,0,0,1,11.369-1.9a1.942,1.942,0,0,1,.816-1.666,3.846,3.846,0,0,1,2.295-.594h1.143V-4.7a1.319,1.319,0,0,0-.368-.981,1.48,1.48,0,0,0-1.085-.365,1.712,1.712,0,0,0-1.054.317.935.935,0,0,0-.425.768H11.508a1.621,1.621,0,0,1,.365-.993,2.491,2.491,0,0,1,.99-.759A3.331,3.331,0,0,1,14.238-7,2.715,2.715,0,0,1,16.1-6.4a2.141,2.141,0,0,1,.7,1.635v3.161a3.865,3.865,0,0,0,.241,1.5V0ZM13.857-.9A2.064,2.064,0,0,0,14.9-1.181a1.728,1.728,0,0,0,.717-.743V-3.333H14.7q-2.158,0-2.158,1.263a1.069,1.069,0,0,0,.368.863A1.415,1.415,0,0,0,13.857-.9Z" transform="translate(335.051 3184)" fill="#12263f"/>
    <path id="Trazado_901095" data-name="Trazado 901095" d="M1.936-2.418H-1.936L-2.806,0H-4.062L-.533-9.242H.533L4.069,0H2.818Zm-3.5-1H1.574L0-7.738Z" transform="translate(418.051 3153)" fill="#12263f"/>
    <path id="Trazado_901096" data-name="Trazado 901096" d="M-2.974,0V-9.242H.048a3.507,3.507,0,0,1,2.263.622,2.242,2.242,0,0,1,.759,1.841A1.877,1.877,0,0,1,2.7-5.634a2.387,2.387,0,0,1-1,.771,2.143,2.143,0,0,1,1.184.8,2.286,2.286,0,0,1,.435,1.4A2.472,2.472,0,0,1,2.51-.711,3.334,3.334,0,0,1,.232,0Zm1.219-4.323V-1H.257A1.938,1.938,0,0,0,1.6-1.438a1.549,1.549,0,0,0,.492-1.216q0-1.669-1.815-1.669Zm0-.978H.086a1.93,1.93,0,0,0,1.279-.4,1.344,1.344,0,0,0,.479-1.088A1.321,1.321,0,0,0,1.4-7.9,2.182,2.182,0,0,0,.048-8.246h-1.8Z" transform="translate(418.051 3189)" fill="#12263f"/>
    <path id="Trazado_901097" data-name="Trazado 901097" d="M-.958-5.167H-6.252V-6.189H-.958Zm0,2.634H-6.252V-3.548H-.958ZM4.545,0H3.364V-7.827L1-6.957V-8.023L4.361-9.287h.184Z" transform="translate(461.051 3155)" fill="#12263f"/>
    <circle id="Elipse_11639" data-name="Elipse 11639" cx="3" cy="3" r="3" transform="translate(482.051 3162)" fill="#8a9bb1"/>
    <g id="Trazado_900555" data-name="Trazado 900555" transform="translate(261.801 3149)" fill="#c7e0ff">
      <path d="M 35.61346054077148 32.5 L 0.62709641456604 32.5 L 3.980611801147461 17.8196907043457 L 4.004312038421631 17.7159595489502 L 3.983721971511841 17.61157035827637 L 0.6082715392112732 0.5 L 35.58192825317383 0.5 C 36.26582717895508 0.9138395190238953 39.86738967895508 3.136635780334473 43.42219161987305 6.150529861450195 C 48.54319000244141 10.49228954315186 51.25 14.48892021179199 51.25 17.70833969116211 C 51.25 19.46919059753418 50.44734191894531 21.33514022827148 48.86431121826172 23.25435066223145 C 47.56573104858398 24.82871055603027 45.74802017211914 26.4351806640625 43.46167373657227 28.02913093566895 C 39.87508773803711 30.52955436706543 36.23940658569336 32.21642684936523 35.61346054077148 32.5 Z" stroke="none"/>
      <path d="M 1.216529846191406 1 L 4.515453338623047 17.72357940673828 L 1.254199981689453 32 L 35.50486755371094 32 C 36.33390808105469 31.61972427368164 39.78613662719727 29.98386573791504 43.18787384033203 27.61048889160156 C 46.63768005371094 25.20357894897461 50.75 21.53184127807617 50.75 17.70833969116211 C 50.75 14.64266014099121 48.10778045654297 10.78087997436523 43.10900115966797 6.540510177612305 C 39.74909973144531 3.690370559692383 36.34255218505859 1.550748825073242 35.4417839050293 1 L 1.216529846191406 1 M 3.814697265625e-06 0 L 35.72048187255859 0 C 35.72048187255859 0 51.75 9.458339691162109 51.75 17.70833969116211 C 51.75 25.95833969116211 35.72048187255859 33 35.72048187255859 33 L 3.814697265625e-06 33 L 3.493171691894531 17.70833969116211 L 3.814697265625e-06 0 Z" stroke="none" fill="#8a9bb1"/>
    </g>
    <g id="Trazado_900540" data-name="Trazado 900540" transform="translate(264.676 3149)" fill="#c7e0ff">
      <path d="M 35.61346054077148 32.5 L 0.62709641456604 32.5 L 3.980611801147461 17.8196907043457 L 4.004312038421631 17.7159595489502 L 3.983721971511841 17.61157035827637 L 0.6082715392112732 0.5 L 35.58192825317383 0.5 C 36.26582717895508 0.9138395190238953 39.86738967895508 3.136635780334473 43.42219161987305 6.150529861450195 C 48.54319000244141 10.49228954315186 51.25 14.48892021179199 51.25 17.70833969116211 C 51.25 19.46919059753418 50.44734191894531 21.33514022827148 48.86431121826172 23.25435066223145 C 47.56573104858398 24.82871055603027 45.74802017211914 26.4351806640625 43.46167373657227 28.02913093566895 C 39.87508773803711 30.52955436706543 36.23940658569336 32.21642684936523 35.61346054077148 32.5 Z" stroke="none"/>
      <path d="M 1.216529846191406 1 L 4.515453338623047 17.72357940673828 L 1.254199981689453 32 L 35.50486755371094 32 C 36.33390808105469 31.61972427368164 39.78613662719727 29.98386573791504 43.18787384033203 27.61048889160156 C 46.63768005371094 25.20357894897461 50.75 21.53184127807617 50.75 17.70833969116211 C 50.75 14.64266014099121 48.10778045654297 10.78087997436523 43.10900115966797 6.540510177612305 C 39.74909973144531 3.690370559692383 36.34255218505859 1.550748825073242 35.4417839050293 1 L 1.216529846191406 1 M 3.814697265625e-06 0 L 35.72048187255859 0 C 35.72048187255859 0 51.75 9.458339691162109 51.75 17.70833969116211 C 51.75 25.95833969116211 35.72048187255859 33 35.72048187255859 33 L 3.814697265625e-06 33 L 3.493171691894531 17.70833969116211 L 3.814697265625e-06 0 Z" stroke="none" fill="#8a9bb1"/>
    </g>
    <path id="Trazado_901093" data-name="Trazado 901093" d="M-10.02-2.791h-4.468l-1,2.791h-1.45l4.072-10.664h1.23L-7.559,0H-9Zm-4.043-1.15h3.625l-1.816-4.988Zm5.691-7.969h-6.2v-.4h6.2ZM5.787-5.273A5.3,5.3,0,0,1,5.347-3.12a5.485,5.485,0,0,1-1.2,1.74A5.635,5.635,0,0,1,2.385-.215,5.506,5.506,0,0,1,.223.211,5.506,5.506,0,0,1-1.939-.215,5.635,5.635,0,0,1-3.705-1.38,5.485,5.485,0,0,1-4.9-3.12,5.3,5.3,0,0,1-5.34-5.273,5.271,5.271,0,0,1-4.9-7.422a5.5,5.5,0,0,1,1.2-1.736,5.635,5.635,0,0,1,1.767-1.165,5.506,5.506,0,0,1,2.162-.426,5.506,5.506,0,0,1,2.162.426A5.635,5.635,0,0,1,4.152-9.158a5.5,5.5,0,0,1,1.2,1.736A5.271,5.271,0,0,1,5.787-5.273ZM.8-.993A4.247,4.247,0,0,0,2.148-1.4a4.109,4.109,0,0,0,1.1-.8,4.139,4.139,0,0,0,.782-1.121,4.5,4.5,0,0,0,.4-1.362H.8Zm3.63-4.869a4.447,4.447,0,0,0-.4-1.358,4.1,4.1,0,0,0-.782-1.112,4.159,4.159,0,0,0-1.1-.8A4.247,4.247,0,0,0,.8-9.536v3.674Zm-8.42,1.178a4.257,4.257,0,0,0,.4,1.362A4.273,4.273,0,0,0-2.809-2.2a4.066,4.066,0,0,0,1.094.8A4.2,4.2,0,0,0-.365-.993V-4.685ZM-.365-9.536a4.2,4.2,0,0,0-1.349.409,4.115,4.115,0,0,0-1.094.8A4.227,4.227,0,0,0-3.591-7.22a4.21,4.21,0,0,0-.4,1.358H-.365ZM9.046,0V-10.664h3.486a4.047,4.047,0,0,1,2.611.718,2.587,2.587,0,0,1,.875,2.124A2.166,2.166,0,0,1,15.594-6.5a2.754,2.754,0,0,1-1.157.89,2.473,2.473,0,0,1,1.366.919,2.638,2.638,0,0,1,.5,1.615,2.852,2.852,0,0,1-.93,2.256A3.847,3.847,0,0,1,12.745,0Zm1.406-4.988V-1.15h2.322a2.236,2.236,0,0,0,1.549-.509,1.788,1.788,0,0,0,.568-1.4q0-1.926-2.095-1.926Zm0-1.128h2.124a2.226,2.226,0,0,0,1.476-.462,1.55,1.55,0,0,0,.553-1.255,1.524,1.524,0,0,0-.513-1.281,2.518,2.518,0,0,0-1.56-.4h-2.08Zm5.684-5.793H9.94v-.4h6.2Z" transform="translate(336.051 3160)" fill="#12263f"/>
    <path id="Trazado_901098" data-name="Trazado 901098" d="M-10.02-2.791h-4.468l-1,2.791h-1.45l4.072-10.664h1.23L-7.559,0H-9Zm-4.043-1.15h3.625l-1.816-4.988Zm5.691-7.969h-6.2v-.4h6.2ZM5.787-5.273A5.3,5.3,0,0,1,5.347-3.12a5.485,5.485,0,0,1-1.2,1.74A5.635,5.635,0,0,1,2.385-.215,5.506,5.506,0,0,1,.223.211,5.506,5.506,0,0,1-1.939-.215,5.635,5.635,0,0,1-3.705-1.38,5.485,5.485,0,0,1-4.9-3.12,5.3,5.3,0,0,1-5.34-5.273,5.271,5.271,0,0,1-4.9-7.422a5.5,5.5,0,0,1,1.2-1.736,5.635,5.635,0,0,1,1.767-1.165,5.506,5.506,0,0,1,2.162-.426,5.506,5.506,0,0,1,2.162.426A5.635,5.635,0,0,1,4.152-9.158a5.5,5.5,0,0,1,1.2,1.736A5.271,5.271,0,0,1,5.787-5.273ZM.8-.993A4.247,4.247,0,0,0,2.148-1.4a4.109,4.109,0,0,0,1.1-.8,4.139,4.139,0,0,0,.782-1.121,4.5,4.5,0,0,0,.4-1.362H.8Zm3.63-4.869a4.447,4.447,0,0,0-.4-1.358,4.1,4.1,0,0,0-.782-1.112,4.159,4.159,0,0,0-1.1-.8A4.247,4.247,0,0,0,.8-9.536v3.674Zm-8.42,1.178a4.257,4.257,0,0,0,.4,1.362A4.273,4.273,0,0,0-2.809-2.2a4.066,4.066,0,0,0,1.094.8A4.2,4.2,0,0,0-.365-.993V-4.685ZM-.365-9.536a4.2,4.2,0,0,0-1.349.409,4.115,4.115,0,0,0-1.094.8A4.227,4.227,0,0,0-3.591-7.22a4.21,4.21,0,0,0-.4,1.358H-.365ZM9.046,0V-10.664h3.486a4.047,4.047,0,0,1,2.611.718,2.587,2.587,0,0,1,.875,2.124A2.166,2.166,0,0,1,15.594-6.5a2.754,2.754,0,0,1-1.157.89,2.473,2.473,0,0,1,1.366.919,2.638,2.638,0,0,1,.5,1.615,2.852,2.852,0,0,1-.93,2.256A3.847,3.847,0,0,1,12.745,0Zm1.406-4.988V-1.15h2.322a2.236,2.236,0,0,0,1.549-.509,1.788,1.788,0,0,0,.568-1.4q0-1.926-2.095-1.926Zm0-1.128h2.124a2.226,2.226,0,0,0,1.476-.462,1.55,1.55,0,0,0,.553-1.255,1.524,1.524,0,0,0-.513-1.281,2.518,2.518,0,0,0-1.56-.4h-2.08Zm5.684-5.793H9.94v-.4h6.2Z" transform="translate(502.051 3158)" fill="#12263f"/>
  </g>
</svg>
