<svg xmlns="http://www.w3.org/2000/svg" width="311.49" height="68.37" viewBox="0 0 311.49 68.37">
  <g id="Grupo_1113056" data-name="Grupo 1113056" transform="translate(-353.061 -700.63)">
    <line id="Línea_586" data-name="Línea 586" x2="76" transform="translate(417.551 737.5)" fill="none" stroke="#8a9bb1" stroke-linecap="round" stroke-width="2"/>
    <line id="Línea_587" data-name="Línea 587" x2="76" transform="translate(587.551 737.5)" fill="none" stroke="#8a9bb1" stroke-linecap="round" stroke-width="2"/>
    <line id="Línea_589" data-name="Línea 589" y1="6" x2="8" transform="translate(647.051 740)" fill="none" stroke="#8a9bb1" stroke-linecap="round" stroke-width="2"/>
    <g id="Polígono_1" data-name="Polígono 1" transform="translate(475.051 713) rotate(90)" fill="#c7e0ff">
      <path d="M 42.83045959472656 41.49999618530273 L 5.169539928436279 41.49999618530273 C 4.268060207366943 41.49999618530273 3.459739923477173 41.03450393676758 3.007260084152222 40.25481414794922 C 2.554790019989014 39.47512435913086 2.551680088043213 38.54235458374023 2.998929977416992 37.7596549987793 L 21.82938957214355 4.80634593963623 C 22.28010940551758 4.017595767974854 23.09155082702637 3.546695709228516 24 3.546695709228516 C 24.90844917297363 3.546695709228516 25.71989059448242 4.017595767974854 26.17061042785645 4.80634593963623 L 45.00106811523438 37.7596549987793 C 45.44831848144531 38.54235458374023 45.44520950317383 39.47512435913086 44.99274063110352 40.25481414794922 C 44.54026031494141 41.03450393676758 43.73194122314453 41.49999618530273 42.83045959472656 41.49999618530273 Z" stroke="none"/>
      <path d="M 24 4.046695709228516 C 23.27323913574219 4.046695709228516 22.62409019470215 4.423416137695312 22.26350975036621 5.054416656494141 L 3.433048248291016 38.00772476196289 C 3.075248718261719 38.63387680053711 3.077739715576172 39.38009643554688 3.439720153808594 40.00384521484375 C 3.801700592041016 40.62760543823242 4.448360443115234 40.99999618530273 5.169540405273438 40.99999618530273 L 42.83045959472656 40.99999618530273 C 43.55163955688477 40.99999618530273 44.19829940795898 40.62760543823242 44.56027984619141 40.00384521484375 C 44.92226028442383 39.38009643554688 44.92475128173828 38.63387680053711 44.56695175170898 38.00772476196289 L 25.73649024963379 5.054424285888672 C 25.37590980529785 4.423416137695312 24.72674942016602 4.046695709228516 24 4.046695709228516 M 23.99999618530273 3.046695709228516 C 25.01444053649902 3.046695709228516 26.02888488769531 3.550556182861328 26.6047306060791 4.558277130126953 L 45.43518829345703 37.5115852355957 C 46.57802963256836 39.51154708862305 45.13393020629883 41.99999618530273 42.83045959472656 41.99999618530273 L 5.169540405273438 41.99999618530273 C 2.866069793701172 41.99999618530273 1.421970367431641 39.51154708862305 2.564811706542969 37.5115852355957 L 21.3952693939209 4.558277130126953 C 21.97110939025879 3.550556182861328 22.98555183410645 3.046695709228516 23.99999618530273 3.046695709228516 Z" stroke="none" fill="#8a9bb1"/>
    </g>
    <g id="Elipse_11637" data-name="Elipse 11637" transform="translate(471.051 733)" fill="#c7e0ff" stroke="#8a9bb1" stroke-width="1">
      <circle cx="4.5" cy="4.5" r="4.5" stroke="none"/>
      <circle cx="4.5" cy="4.5" r="4" fill="none"/>
    </g>
    <g id="Rectángulo_406754" data-name="Rectángulo 406754" transform="translate(605.051 710)" fill="#fff" stroke="#8a9bb1" stroke-width="3">
      <rect width="42" height="59" stroke="none"/>
      <rect x="1.5" y="1.5" width="39" height="56" fill="none"/>
    </g>
    <path id="Trazado_901086" data-name="Trazado 901086" d="M-21.766-4.272h-4.005V-1h4.653V0H-26.99V-9.242h5.808v1h-4.589v2.977h4.005Zm3.091-2.6.038.863A2.5,2.5,0,0,1-16.58-7q2.177,0,2.2,2.457V0h-1.174V-4.545a1.581,1.581,0,0,0-.34-1.1A1.361,1.361,0,0,0-16.936-6a1.7,1.7,0,0,0-1,.3,2.069,2.069,0,0,0-.673.8V0h-1.174V-6.868Zm7.655-1.663v1.663h1.282v.908H-11.02V-1.7a.953.953,0,0,0,.171.62.721.721,0,0,0,.584.207,2.843,2.843,0,0,0,.559-.076V0a3.424,3.424,0,0,1-.9.126,1.462,1.462,0,0,1-1.187-.476,2.045,2.045,0,0,1-.4-1.352V-5.96h-1.25v-.908h1.25V-8.531Zm5.973,2.717a3.519,3.519,0,0,0-.578-.044,1.547,1.547,0,0,0-1.568.984V0H-8.366V-6.868h1.143l.019.793A1.829,1.829,0,0,1-5.567-7a1.2,1.2,0,0,1,.521.089ZM.019,0A2.467,2.467,0,0,1-.146-.724,2.62,2.62,0,0,1-2.1.127,2.424,2.424,0,0,1-3.767-.448,1.859,1.859,0,0,1-4.418-1.9,1.942,1.942,0,0,1-3.6-3.571a3.846,3.846,0,0,1,2.295-.594H-.165V-4.7a1.319,1.319,0,0,0-.368-.981,1.48,1.48,0,0,0-1.085-.365,1.712,1.712,0,0,0-1.054.317.935.935,0,0,0-.425.768H-4.278a1.621,1.621,0,0,1,.365-.993,2.491,2.491,0,0,1,.99-.759A3.331,3.331,0,0,1-1.549-7,2.715,2.715,0,0,1,.311-6.4a2.141,2.141,0,0,1,.7,1.635v3.161A3.865,3.865,0,0,0,1.25-.1V0ZM-1.93-.9A2.064,2.064,0,0,0-.882-1.181a1.728,1.728,0,0,0,.717-.743V-3.333h-.92q-2.158,0-2.158,1.263a1.069,1.069,0,0,0,.368.863A1.415,1.415,0,0,0-1.93-.9Zm4.494-2.6a4.023,4.023,0,0,1,.749-2.542A2.369,2.369,0,0,1,5.275-7a2.382,2.382,0,0,1,1.911.825V-9.75H8.36V0H7.281L7.224-.736A2.391,2.391,0,0,1,5.262.127,2.346,2.346,0,0,1,3.317-.851,4.069,4.069,0,0,1,2.564-3.4Zm1.174.133A3.046,3.046,0,0,0,4.221-1.53a1.56,1.56,0,0,0,1.333.66,1.713,1.713,0,0,0,1.631-1V-5.027A1.726,1.726,0,0,0,5.567-6a1.567,1.567,0,0,0-1.346.667A3.354,3.354,0,0,0,3.739-3.358ZM14.422,0a2.467,2.467,0,0,1-.165-.724A2.62,2.62,0,0,1,12.3.127a2.424,2.424,0,0,1-1.666-.574A1.859,1.859,0,0,1,9.985-1.9,1.942,1.942,0,0,1,10.8-3.571,3.846,3.846,0,0,1,13.1-4.164h1.143V-4.7a1.319,1.319,0,0,0-.368-.981,1.48,1.48,0,0,0-1.085-.365,1.712,1.712,0,0,0-1.054.317.935.935,0,0,0-.425.768H10.125a1.621,1.621,0,0,1,.365-.993,2.491,2.491,0,0,1,.99-.759A3.331,3.331,0,0,1,12.854-7a2.715,2.715,0,0,1,1.86.594,2.141,2.141,0,0,1,.7,1.635v3.161a3.865,3.865,0,0,0,.241,1.5V0ZM12.473-.9a2.064,2.064,0,0,0,1.047-.286,1.728,1.728,0,0,0,.717-.743V-3.333h-.92q-2.158,0-2.158,1.263a1.069,1.069,0,0,0,.368.863A1.415,1.415,0,0,0,12.473-.9ZM25.759-2.418H21.887L21.017,0H19.76L23.29-9.242h1.066L27.892,0h-1.25Zm-3.5-1H25.4L23.823-7.738Z" transform="translate(380.051 742)" fill="#12263f"/>
    <path id="Trazado_901085" data-name="Trazado 901085" d="M-5.326,0H-6.481l-3.3-7.173L-11.026,0h-1.2l1.606-9.242h1.155l3.307,7.2,1.25-7.2H-3.72Zm9.82-4.329A7.284,7.284,0,0,1,4.04-2.663a5.232,5.232,0,0,1-.86,1.438,3.993,3.993,0,0,1-1.279,1A3.594,3.594,0,0,1,.2.127a3.1,3.1,0,0,1-1.082-.2A2.6,2.6,0,0,1-1.7-.581a2.824,2.824,0,0,1-.574-.749,4.058,4.058,0,0,1-.352-.917,4.991,4.991,0,0,1-.146-1.019,6.089,6.089,0,0,1,.048-1.057l.083-.584a7.112,7.112,0,0,1,.257-1.117,6.256,6.256,0,0,1,.441-1.054A5.27,5.27,0,0,1-1.317-8a4.066,4.066,0,0,1,.806-.733,3.632,3.632,0,0,1,.99-.476A3.683,3.683,0,0,1,1.65-9.369a3.147,3.147,0,0,1,1.092.2,2.589,2.589,0,0,1,.822.508,2.824,2.824,0,0,1,.574.749,3.842,3.842,0,0,1,.346.92,5.205,5.205,0,0,1,.136,1.025,6.334,6.334,0,0,1-.051,1.06Zm-1.1-.6q.044-.355.057-.746a4.764,4.764,0,0,0-.035-.762,3.551,3.551,0,0,0-.165-.711,1.867,1.867,0,0,0-.333-.6,1.631,1.631,0,0,0-.54-.416,1.881,1.881,0,0,0-.781-.171,2.463,2.463,0,0,0-.866.121,2.493,2.493,0,0,0-.711.378,2.814,2.814,0,0,0-.565.578,4.329,4.329,0,0,0-.425.717,5.463,5.463,0,0,0-.3.8,5.792,5.792,0,0,0-.178.819l-.083.6a7.249,7.249,0,0,0-.054.736,5.048,5.048,0,0,0,.038.762,3.414,3.414,0,0,0,.168.714,2,2,0,0,0,.336.6,1.637,1.637,0,0,0,.536.425A1.81,1.81,0,0,0,.26-.9a2.535,2.535,0,0,0,.879-.121A2.471,2.471,0,0,0,1.854-1.4a2.784,2.784,0,0,0,.562-.574,4.173,4.173,0,0,0,.422-.717,5.108,5.108,0,0,0,.292-.8,7.485,7.485,0,0,0,.178-.832Zm9.629-3.313H10.144L8.715,0H7.528L8.957-8.239H6.081l.178-1H13.2Z" transform="translate(443.051 710)" fill="#12263f"/>
    <path id="Trazado_901087" data-name="Trazado 901087" d="M-19.03-2.418H-22.9L-23.772,0h-1.257L-21.5-9.242h1.066L-16.9,0h-1.25Zm-3.5-1h3.142l-1.574-4.323Zm4.932-6.906h-5.37v-.343h5.37Zm7.89,6.2a5.731,5.731,0,0,1-2.282-1.108,2.116,2.116,0,0,1-.714-1.622,2.236,2.236,0,0,1,.873-1.806,3.469,3.469,0,0,1,2.269-.714A3.786,3.786,0,0,1-7.868-9,2.792,2.792,0,0,1-6.713-7.985,2.6,2.6,0,0,1-6.3-6.57H-7.528a1.69,1.69,0,0,0-.533-1.322,2.168,2.168,0,0,0-1.5-.481,2.22,2.22,0,0,0-1.406.4,1.326,1.326,0,0,0-.5,1.1A1.193,1.193,0,0,0-11-5.915,4.7,4.7,0,0,0-9.366-5.2a7.569,7.569,0,0,1,1.8.715,2.736,2.736,0,0,1,.965.911,2.325,2.325,0,0,1,.314,1.225,2.159,2.159,0,0,1-.876,1.8A3.735,3.735,0,0,1-9.5.127,4.344,4.344,0,0,1-11.28-.238a2.991,2.991,0,0,1-1.273-1A2.44,2.44,0,0,1-13-2.679h1.225a1.592,1.592,0,0,0,.619,1.323A2.606,2.606,0,0,0-9.5-.87a2.4,2.4,0,0,0,1.479-.394,1.278,1.278,0,0,0,.514-1.073,1.255,1.255,0,0,0-.476-1.051A5.489,5.489,0,0,0-9.712-4.12ZM-.667,0A2.467,2.467,0,0,1-.832-.724,2.62,2.62,0,0,1-2.787.127,2.424,2.424,0,0,1-4.453-.448,1.859,1.859,0,0,1-5.1-1.9a1.942,1.942,0,0,1,.816-1.666,3.846,3.846,0,0,1,2.295-.594H-.851V-4.7a1.319,1.319,0,0,0-.368-.981A1.48,1.48,0,0,0-2.3-6.049a1.712,1.712,0,0,0-1.054.317.935.935,0,0,0-.425.768H-4.964A1.621,1.621,0,0,1-4.6-5.957a2.491,2.491,0,0,1,.99-.759A3.331,3.331,0,0,1-2.234-7,2.715,2.715,0,0,1-.375-6.4a2.141,2.141,0,0,1,.7,1.635v3.161A3.865,3.865,0,0,0,.565-.1V0ZM-2.615-.9a2.064,2.064,0,0,0,1.047-.286,1.728,1.728,0,0,0,.717-.743V-3.333h-.92q-2.158,0-2.158,1.263a1.069,1.069,0,0,0,.368.863A1.415,1.415,0,0,0-2.615-.9ZM3.44,0H2.266V-9.75H3.44ZM6.6,0H5.421V-6.868H6.6ZM5.326-8.69A.7.7,0,0,1,5.5-9.172a.655.655,0,0,1,.517-.2.666.666,0,0,1,.521.2.694.694,0,0,1,.178.482.671.671,0,0,1-.178.476.678.678,0,0,1-.521.19.667.667,0,0,1-.517-.19A.678.678,0,0,1,5.326-8.69Zm2.863,5.2a4.023,4.023,0,0,1,.749-2.542A2.369,2.369,0,0,1,10.9-7a2.382,2.382,0,0,1,1.911.825V-9.75h1.174V0H12.9l-.057-.736a2.391,2.391,0,0,1-1.961.863A2.346,2.346,0,0,1,8.941-.851,4.069,4.069,0,0,1,8.188-3.4Zm1.174.133A3.046,3.046,0,0,0,9.845-1.53a1.56,1.56,0,0,0,1.333.66,1.713,1.713,0,0,0,1.631-1V-5.027A1.726,1.726,0,0,0,11.191-6a1.567,1.567,0,0,0-1.346.667A3.354,3.354,0,0,0,9.363-3.358ZM20.046,0a2.467,2.467,0,0,1-.165-.724,2.62,2.62,0,0,1-1.955.851A2.424,2.424,0,0,1,16.26-.448,1.859,1.859,0,0,1,15.609-1.9a1.942,1.942,0,0,1,.816-1.666,3.846,3.846,0,0,1,2.295-.594h1.143V-4.7a1.319,1.319,0,0,0-.368-.981,1.48,1.48,0,0,0-1.085-.365,1.712,1.712,0,0,0-1.054.317.935.935,0,0,0-.425.768H15.749a1.621,1.621,0,0,1,.365-.993,2.491,2.491,0,0,1,.99-.759A3.331,3.331,0,0,1,18.478-7a2.715,2.715,0,0,1,1.86.594,2.141,2.141,0,0,1,.7,1.635v3.161a3.865,3.865,0,0,0,.241,1.5V0ZM18.1-.9a2.064,2.064,0,0,0,1.047-.286,1.728,1.728,0,0,0,.717-.743V-3.333h-.92q-2.158,0-2.158,1.263a1.069,1.069,0,0,0,.368.863A1.415,1.415,0,0,0,18.1-.9Z" transform="translate(522.051 742)" fill="#12263f"/>
    <path id="Trazado_901088" data-name="Trazado 901088" d="M1.936-2.418H-1.936L-2.806,0H-4.062L-.533-9.242H.533L4.069,0H2.818Zm-3.5-1H1.574L0-7.738Z" transform="translate(597.051 731)" fill="#12263f"/>
    <path id="Trazado_901089" data-name="Trazado 901089" d="M.978,0H-.2V-7.827l-2.368.87V-8.023L.793-9.287H.978Z" transform="translate(626.051 727)" fill="#12263f"/>
    <path id="Trazado_901090" data-name="Trazado 901090" d="M1.936-2.418H-1.936L-2.806,0H-4.062L-.533-9.242H.533L4.069,0H2.818Zm-3.5-1H1.574L0-7.738Zm4.932-6.906h-5.37v-.343h5.37Z" transform="translate(659.051 734)" fill="#12263f"/>
    <circle id="Elipse_11639" data-name="Elipse 11639" cx="3" cy="3" r="3" transform="translate(647.051 734)" fill="#8a9bb1"/>
  </g>
</svg>
