<svg xmlns="http://www.w3.org/2000/svg" width="271.563" height="68.37" viewBox="0 0 271.563 68.37">
  <g id="Grupo_1113171" data-name="Grupo 1113171" transform="translate(-664.988 -1115.63)">
    <g id="Grupo_1113059" data-name="Grupo 1113059" transform="translate(180 8)">
      <line id="Línea_586" data-name="Línea 586" x2="40" transform="translate(549.551 1145.5)" fill="none" stroke="#8a9bb1" stroke-linecap="round" stroke-width="2"/>
      <line id="Línea_590" data-name="Línea 590" x2="36" y2="0.5" transform="translate(496.551 1152)" fill="none" stroke="#8a9bb1" stroke-linecap="round" stroke-width="2"/>
      <line id="Línea_591" data-name="Línea 591" x2="36" y2="0.5" transform="translate(496.551 1136.5)" fill="none" stroke="#8a9bb1" stroke-linecap="round" stroke-width="2"/>
      <line id="Línea_592" data-name="Línea 592" x2="36" y2="0.5" transform="translate(666.051 1128)" fill="none" stroke="#8a9bb1" stroke-linecap="round" stroke-width="2"/>
      <line id="Línea_593" data-name="Línea 593" x2="36" y2="0.5" transform="translate(666.051 1164)" fill="none" stroke="#8a9bb1" stroke-linecap="round" stroke-width="2"/>
      <line id="Línea_587" data-name="Línea 587" x2="53" transform="translate(702.551 1144.5)" fill="none" stroke="#8a9bb1" stroke-linecap="round" stroke-width="2"/>
      <line id="Línea_589" data-name="Línea 589" y1="6" x2="8" transform="translate(723.051 1147)" fill="none" stroke="#8a9bb1" stroke-linecap="round" stroke-width="2"/>
      <g id="Rectángulo_406754" data-name="Rectángulo 406754" transform="translate(681.051 1117)" fill="#fff" stroke="#8a9bb1" stroke-width="3">
        <rect width="42" height="59" stroke="none"/>
        <rect x="1.5" y="1.5" width="39" height="56" fill="none"/>
      </g>
      <path id="Trazado_901092" data-name="Trazado 901092" d="M1.936-2.418H-1.936L-2.806,0H-4.062L-.533-9.242H.533L4.069,0H2.818Zm-3.5-1H1.574L0-7.738Z" transform="translate(489.051 1138)" fill="#12263f"/>
      <path id="Trazado_901093" data-name="Trazado 901093" d="M-2.974,0V-9.242H.048a3.507,3.507,0,0,1,2.263.622,2.242,2.242,0,0,1,.759,1.841A1.877,1.877,0,0,1,2.7-5.634a2.387,2.387,0,0,1-1,.771,2.143,2.143,0,0,1,1.184.8,2.286,2.286,0,0,1,.435,1.4A2.472,2.472,0,0,1,2.51-.711,3.334,3.334,0,0,1,.232,0Zm1.219-4.323V-1H.257A1.938,1.938,0,0,0,1.6-1.438a1.549,1.549,0,0,0,.492-1.216q0-1.669-1.815-1.669Zm0-.978H.086a1.93,1.93,0,0,0,1.279-.4,1.344,1.344,0,0,0,.479-1.088A1.321,1.321,0,0,0,1.4-7.9,2.182,2.182,0,0,0,.048-8.246h-1.8Z" transform="translate(489.051 1156)" fill="#12263f"/>
      <path id="Trazado_901091" data-name="Trazado 901091" d="M-5.326,0H-6.481l-3.3-7.173L-11.026,0h-1.2l1.606-9.242h1.155l3.307,7.2,1.25-7.2H-3.72Zm9.82-4.329A7.284,7.284,0,0,1,4.04-2.663a5.232,5.232,0,0,1-.86,1.438,3.993,3.993,0,0,1-1.279,1A3.594,3.594,0,0,1,.2.127a3.1,3.1,0,0,1-1.082-.2A2.6,2.6,0,0,1-1.7-.581a2.824,2.824,0,0,1-.574-.749,4.058,4.058,0,0,1-.352-.917,4.991,4.991,0,0,1-.146-1.019,6.089,6.089,0,0,1,.048-1.057l.083-.584a7.112,7.112,0,0,1,.257-1.117,6.256,6.256,0,0,1,.441-1.054A5.27,5.27,0,0,1-1.317-8a4.066,4.066,0,0,1,.806-.733,3.632,3.632,0,0,1,.99-.476A3.683,3.683,0,0,1,1.65-9.369a3.147,3.147,0,0,1,1.092.2,2.589,2.589,0,0,1,.822.508,2.824,2.824,0,0,1,.574.749,3.842,3.842,0,0,1,.346.92,5.205,5.205,0,0,1,.136,1.025,6.334,6.334,0,0,1-.051,1.06Zm-1.1-.6q.044-.355.057-.746a4.764,4.764,0,0,0-.035-.762,3.551,3.551,0,0,0-.165-.711,1.867,1.867,0,0,0-.333-.6,1.631,1.631,0,0,0-.54-.416,1.881,1.881,0,0,0-.781-.171,2.463,2.463,0,0,0-.866.121,2.493,2.493,0,0,0-.711.378,2.814,2.814,0,0,0-.565.578,4.329,4.329,0,0,0-.425.717,5.463,5.463,0,0,0-.3.8,5.792,5.792,0,0,0-.178.819l-.083.6a7.249,7.249,0,0,0-.054.736,5.048,5.048,0,0,0,.038.762,3.414,3.414,0,0,0,.168.714,2,2,0,0,0,.336.6,1.637,1.637,0,0,0,.536.425A1.81,1.81,0,0,0,.26-.9a2.535,2.535,0,0,0,.879-.121A2.471,2.471,0,0,0,1.854-1.4a2.784,2.784,0,0,0,.562-.574,4.173,4.173,0,0,0,.422-.717,5.108,5.108,0,0,0,.292-.8,7.485,7.485,0,0,0,.178-.832Zm9.629-3.313H10.144L8.715,0H7.528L8.957-8.239H6.081l.178-1H13.2Z" transform="translate(519.051 1117)" fill="#12263f"/>
      <path id="Trazado_901094" data-name="Trazado 901094" d="M-5.8-2.418H-9.667L-10.537,0h-1.257l3.529-9.242H-7.2L-3.663,0h-1.25Zm-3.5-1h3.142L-7.731-7.738ZM.762-4.958H3.339v1.111H.762v2.92H-.419v-2.92H-3V-4.958H-.419v-2.7H.762ZM4.951,0V-9.242H7.973a3.507,3.507,0,0,1,2.263.622,2.242,2.242,0,0,1,.759,1.841,1.877,1.877,0,0,1-.368,1.146,2.387,2.387,0,0,1-1,.771,2.143,2.143,0,0,1,1.184.8,2.286,2.286,0,0,1,.435,1.4,2.472,2.472,0,0,1-.806,1.955A3.334,3.334,0,0,1,8.157,0ZM6.17-4.323V-1H8.182a1.938,1.938,0,0,0,1.343-.441,1.549,1.549,0,0,0,.492-1.216q0-1.669-1.815-1.669Zm0-.978H8.011A1.93,1.93,0,0,0,9.29-5.7a1.344,1.344,0,0,0,.479-1.088A1.321,1.321,0,0,0,9.325-7.9a2.182,2.182,0,0,0-1.352-.347H6.17Z" transform="translate(573.051 1141)" fill="#12263f"/>
      <path id="Trazado_901095" data-name="Trazado 901095" d="M-.06-4.12A5.731,5.731,0,0,1-2.342-5.227a2.116,2.116,0,0,1-.714-1.622,2.236,2.236,0,0,1,.873-1.806A3.469,3.469,0,0,1,.086-9.369,3.786,3.786,0,0,1,1.784-9,2.792,2.792,0,0,1,2.939-7.985,2.6,2.6,0,0,1,3.348-6.57H2.123A1.69,1.69,0,0,0,1.59-7.892a2.168,2.168,0,0,0-1.5-.481,2.22,2.22,0,0,0-1.406.4,1.326,1.326,0,0,0-.5,1.1,1.193,1.193,0,0,0,.479.957A4.7,4.7,0,0,0,.286-5.2a7.569,7.569,0,0,1,1.8.715,2.736,2.736,0,0,1,.965.911,2.325,2.325,0,0,1,.314,1.225,2.159,2.159,0,0,1-.876,1.8A3.735,3.735,0,0,1,.149.127,4.344,4.344,0,0,1-1.628-.238a2.991,2.991,0,0,1-1.273-1,2.44,2.44,0,0,1-.448-1.441h1.225A1.592,1.592,0,0,0-1.5-1.355,2.606,2.606,0,0,0,.149-.87a2.4,2.4,0,0,0,1.479-.394,1.278,1.278,0,0,0,.514-1.073,1.255,1.255,0,0,0-.476-1.051A5.489,5.489,0,0,0-.06-4.12Z" transform="translate(573.051 1161)" fill="#12263f"/>
      <path id="Trazado_901096" data-name="Trazado 901096" d="M1.936-2.418H-1.936L-2.806,0H-4.062L-.533-9.242H.533L4.069,0H2.818Zm-3.5-1H1.574L0-7.738Z" transform="translate(659.051 1132)" fill="#12263f"/>
      <path id="Trazado_901097" data-name="Trazado 901097" d="M1.936-2.418H-1.936L-2.806,0H-4.062L-.533-9.242H.533L4.069,0H2.818Zm-3.5-1H1.574L0-7.738Z" transform="translate(659.051 1168)" fill="#12263f"/>
      <path id="Trazado_901098" data-name="Trazado 901098" d="M-2-4.443l-4.2-1.48V-7.008L-.778-4.848v.834L-6.2-1.849v-1.1ZM-.9-.006H-6.2V-.965H-.9ZM4.377,0H3.2V-7.827l-2.368.87V-8.023L4.193-9.287h.184Z" transform="translate(702.051 1134)" fill="#12263f"/>
      <path id="Trazado_901099" data-name="Trazado 901099" d="M-5.8-2.418H-9.667L-10.537,0h-1.257l3.529-9.242H-7.2L-3.663,0h-1.25Zm-3.5-1h3.142L-7.731-7.738ZM.762-4.958H3.339v1.111H.762v2.92H-.419v-2.92H-3V-4.958H-.419v-2.7H.762ZM4.951,0V-9.242H7.973a3.507,3.507,0,0,1,2.263.622,2.242,2.242,0,0,1,.759,1.841,1.877,1.877,0,0,1-.368,1.146,2.387,2.387,0,0,1-1,.771,2.143,2.143,0,0,1,1.184.8,2.286,2.286,0,0,1,.435,1.4,2.472,2.472,0,0,1-.806,1.955A3.334,3.334,0,0,1,8.157,0ZM6.17-4.323V-1H8.182a1.938,1.938,0,0,0,1.343-.441,1.549,1.549,0,0,0,.492-1.216q0-1.669-1.815-1.669Zm0-.978H8.011A1.93,1.93,0,0,0,9.29-5.7a1.344,1.344,0,0,0,.479-1.088A1.321,1.321,0,0,0,9.325-7.9a2.182,2.182,0,0,0-1.352-.347H6.17Z" transform="translate(741.051 1139)" fill="#12263f"/>
      <circle id="Elipse_11639" data-name="Elipse 11639" cx="3" cy="3" r="3" transform="translate(723.051 1141)" fill="#8a9bb1"/>
      <g id="Trazado_900540" data-name="Trazado 900540" transform="translate(505.676 1128)" fill="#c7e0ff">
        <path d="M 35.61346054077148 32.5 L 0.62709641456604 32.5 L 3.980611801147461 17.8196907043457 L 4.004312038421631 17.7159595489502 L 3.983721971511841 17.61157035827637 L 0.6082715392112732 0.5 L 35.58192825317383 0.5 C 36.26582717895508 0.9138395190238953 39.86738967895508 3.136635780334473 43.42219161987305 6.150529861450195 C 48.54319000244141 10.49228954315186 51.25 14.48892021179199 51.25 17.70833969116211 C 51.25 19.46919059753418 50.44734191894531 21.33514022827148 48.86431121826172 23.25435066223145 C 47.56573104858398 24.82871055603027 45.74802017211914 26.4351806640625 43.46167373657227 28.02913093566895 C 39.87508773803711 30.52955436706543 36.23940658569336 32.21642684936523 35.61346054077148 32.5 Z" stroke="none"/>
        <path d="M 1.216529846191406 1 L 4.515453338623047 17.72357940673828 L 1.254199981689453 32 L 35.50486755371094 32 C 36.33390808105469 31.61972427368164 39.78613662719727 29.98386573791504 43.18787384033203 27.61048889160156 C 46.63768005371094 25.20357894897461 50.75 21.53184127807617 50.75 17.70833969116211 C 50.75 14.64266014099121 48.10778045654297 10.78087997436523 43.10900115966797 6.540510177612305 C 39.74909973144531 3.690370559692383 36.34255218505859 1.550748825073242 35.4417839050293 1 L 1.216529846191406 1 M 3.814697265625e-06 0 L 35.72048187255859 0 C 35.72048187255859 0 51.75 9.458339691162109 51.75 17.70833969116211 C 51.75 25.95833969116211 35.72048187255859 33 35.72048187255859 33 L 3.814697265625e-06 33 L 3.493171691894531 17.70833969116211 L 3.814697265625e-06 0 Z" stroke="none" fill="#8a9bb1"/>
      </g>
    </g>
  </g>
</svg>
