<svg xmlns="http://www.w3.org/2000/svg" width="55" height="55" viewBox="0 0 55 55">
  <g id="Grupo_1113322" data-name="Grupo 1113322" transform="translate(-218.051 -1244)">
    <circle id="Elipse_11640" data-name="Elipse 11640" cx="27.5" cy="27.5" r="27.5" transform="translate(218.051 1244)" fill="#f9fbff"/>
    <g id="Grupo_1113321" data-name="Grupo 1113321" transform="translate(225.322 1251.271)">
      <path id="Trazado_901065" data-name="Trazado 901065" d="M95.484,65.892v25.93a2.1,2.1,0,0,1-2.1,2.1H67.454a2.1,2.1,0,0,1-2.1-2.1V65.892a2.1,2.1,0,0,1,2.1-2.1h25.93A2.1,2.1,0,0,1,95.484,65.892Z" transform="translate(-60.191 -58.752)" fill="#5aaae7"/>
      <path id="Trazado_901066" data-name="Trazado 901066" d="M115.675,91.171V113.84a1.835,1.835,0,0,1-1.835,1.835H91.171a1.835,1.835,0,0,1-1.835-1.835V91.171a1.835,1.835,0,0,1,1.835-1.835H113.84A1.835,1.835,0,0,1,115.675,91.171Z" transform="translate(-82.277 -82.277)" fill="#1e81ce"/>
      <path id="Trazado_901067" data-name="Trazado 901067" d="M156.009,136.982v16.153a1.308,1.308,0,0,1-1.308,1.308H138.549a1.308,1.308,0,0,1-1.308-1.308V136.982a1.307,1.307,0,0,1,1.308-1.308H154.7A1.307,1.307,0,0,1,156.009,136.982Z" transform="translate(-126.397 -124.953)" fill="#96c8ef"/>
      <path id="Trazado_901068" data-name="Trazado 901068" d="M179.607,136.982v16.153a1.308,1.308,0,0,1-1.308,1.308H164.172a1.308,1.308,0,0,1-1.308-1.308V136.982a1.307,1.307,0,0,1,1.308-1.308H178.3A1.307,1.307,0,0,1,179.607,136.982Z" transform="translate(-149.995 -124.953)" fill="#c2dff6"/>
      <g id="Grupo_1113319" data-name="Grupo 1113319" transform="translate(13.54 12.449)">
        <path id="Trazado_901069" data-name="Trazado 901069" d="M201.1,159.4a1.852,1.852,0,1,1-1.15-1.714A1.853,1.853,0,0,1,201.1,159.4Z" transform="translate(-195.341 -157.549)" fill="#2d2d30"/>
        <path id="Trazado_901070" data-name="Trazado 901070" d="M174.812,286.636a1.728,1.728,0,1,1-1.027-1.58A1.729,1.729,0,0,1,174.812,286.636Z" transform="translate(-171.354 -274.844)" fill="#2d2d30"/>
        <path id="Trazado_901071" data-name="Trazado 901071" d="M293.524,230.872A2.222,2.222,0,0,1,292,232.981a2.2,2.2,0,0,1-.7.114,2.223,2.223,0,1,1,0-4.446,2.2,2.2,0,0,1,.7.114A2.223,2.223,0,0,1,293.524,230.872Z" transform="translate(-279.777 -223.031)" fill="#2d2d30"/>
      </g>
      <g id="Grupo_1113320" data-name="Grupo 1113320" transform="translate(14.943 12.587)">
        <path id="Trazado_901072" data-name="Trazado 901072" d="M217.456,161.011a1.243,1.243,0,1,1-1.15-1.714A1.853,1.853,0,0,1,217.456,161.011Z" transform="translate(-213.096 -159.297)" fill="#3e3d42"/>
        <path id="Trazado_901073" data-name="Trazado 901073" d="M191.165,288.367a1.124,1.124,0,1,1-1.027-1.58A1.729,1.729,0,0,1,191.165,288.367Z" transform="translate(-189.11 -276.713)" fill="#3e3d42"/>
        <path id="Trazado_901074" data-name="Trazado 901074" d="M309.876,232.2a1.6,1.6,0,1,1-1.521-2.11A2.222,2.222,0,0,1,309.876,232.2Z" transform="translate(-297.532 -224.492)" fill="#3e3d42"/>
      </g>
      <path id="Trazado_901075" data-name="Trazado 901075" d="M5.164,83.916a.6.6,0,0,0,.6-.6V58.957a1.51,1.51,0,0,1,1.481-1.5.6.6,0,0,0-.009-1.19h-.01a2.7,2.7,0,0,0-2.653,2.694v3.85H.6A.6.6,0,1,0,.6,64H4.569v3.131H.6a.6.6,0,0,0,0,1.191H4.569V71.45H.6a.6.6,0,0,0,0,1.191H4.569v3.131H.6a.6.6,0,0,0,0,1.191H4.569v3.131H.6a.6.6,0,1,0,0,1.191H4.569v2.036A.6.6,0,0,0,5.164,83.916Z" transform="translate(0 -51.817)"/>
      <path id="Trazado_901076" data-name="Trazado 901076" d="M87.475,422.342H62.328a1.5,1.5,0,0,1-1.393-.935.6.6,0,1,0-1.1.451,2.685,2.685,0,0,0,2.495,1.674h3.726v4.1a.6.6,0,0,0,1.191,0v-4.1h3.131v4.1a.6.6,0,0,0,1.191,0v-4.1H74.7v4.1a.6.6,0,0,0,1.191,0v-4.1h3.131v4.1a.6.6,0,0,0,1.191,0v-4.1h3.131v4.1a.6.6,0,0,0,1.191,0v-4.1h2.943a.6.6,0,1,0,0-1.191Z" transform="translate(-55.064 -387.768)"/>
      <path id="Trazado_901077" data-name="Trazado 901077" d="M147.761,148.1a1.9,1.9,0,0,0,1.9-1.9V130.041a1.9,1.9,0,0,0-1.9-1.9H131.608a1.9,1.9,0,0,0-1.9,1.9v16.153a1.9,1.9,0,0,0,1.9,1.9Zm-13.426-4.856a1.133,1.133,0,1,1,1.688-.988A1.133,1.133,0,0,1,134.335,143.242Zm14.138,2.953a.713.713,0,0,1-.712.712h-7.419v-2.575h8.131Zm-3.356-16.866h2.644a.713.713,0,0,1,.712.712v13.1h-8.131V138.9h1.425a2.818,2.818,0,1,0,3.351-3.351h0Zm1.032,8.974a1.627,1.627,0,1,1-1.627-1.628A1.629,1.629,0,0,1,146.148,138.3ZM130.9,130.041a.713.713,0,0,1,.712-.712h12.318v6.219a2.829,2.829,0,0,0-2.159,2.16h-4.388v-3.054a2.447,2.447,0,1,0-2.873-2.873H130.9v-1.74Zm6.01,3.468a1.256,1.256,0,1,1,1.257-1.257A1.259,1.259,0,0,1,136.906,133.509Zm-6.01,12.685V132.972h3.671a2.493,2.493,0,0,0,1.62,1.621V138.3a.6.6,0,0,0,.6.6h2.368v8.008h-4v-2.344a2.324,2.324,0,1,0-1.191-.176v2.52h-2.357A.713.713,0,0,1,130.9,146.195Z" transform="translate(-119.456 -118.013)"/>
      <path id="Trazado_901078" data-name="Trazado 901078" d="M144.974,16.5a.6.6,0,0,0,0-1.191H141V12.18h3.973a.6.6,0,0,0,0-1.191H141V7.14a2.7,2.7,0,0,0-2.695-2.695H134.58V.6a.6.6,0,1,0-1.191,0V4.445h-3.131V.6a.6.6,0,1,0-1.191,0V4.445h-3.131V.6a.6.6,0,1,0-1.191,0V4.445h-3.131V.6a.6.6,0,0,0-1.191,0V4.445h-3.131V.6A.6.6,0,1,0,116.1.6V4.445h-1.376a.6.6,0,0,0,0,1.191h23.58a1.505,1.505,0,0,1,1.5,1.5V33.07a1.49,1.49,0,0,1-.466,1.089.6.6,0,0,0,.822.862A2.673,2.673,0,0,0,141,33.07v-3.6h3.973a.6.6,0,0,0,0-1.191H141V25.146h3.973a.6.6,0,0,0,0-1.191H141V20.824h3.973a.6.6,0,0,0,0-1.191H141V16.5Z" transform="translate(-105.113)"/>
    </g>
  </g>
</svg>
