<svg xmlns="http://www.w3.org/2000/svg" width="272.063" height="59" viewBox="0 0 272.063 59">
  <g id="Grupo_1113336" data-name="Grupo 1113336" transform="translate(-454.988 -2397)">
    <line id="Línea_586" data-name="Línea 586" x2="40" transform="translate(519.551 2425.5)" fill="none" stroke="#8a9bb1" stroke-linecap="round" stroke-width="2"/>
    <line id="Línea_590" data-name="Línea 590" x2="36" y2="0.5" transform="translate(466.551 2432)" fill="none" stroke="#8a9bb1" stroke-linecap="round" stroke-width="2"/>
    <line id="Línea_591" data-name="Línea 591" x2="36" y2="0.5" transform="translate(466.551 2416.5)" fill="none" stroke="#8a9bb1" stroke-linecap="round" stroke-width="2"/>
    <line id="Línea_592" data-name="Línea 592" x2="36" y2="0.5" transform="translate(636.051 2408)" fill="none" stroke="#8a9bb1" stroke-linecap="round" stroke-width="2"/>
    <line id="Línea_593" data-name="Línea 593" x2="36" y2="0.5" transform="translate(636.051 2444)" fill="none" stroke="#8a9bb1" stroke-linecap="round" stroke-width="2"/>
    <line id="Línea_587" data-name="Línea 587" x2="53" transform="translate(672.551 2424.5)" fill="none" stroke="#8a9bb1" stroke-linecap="round" stroke-width="2"/>
    <line id="Línea_589" data-name="Línea 589" y1="6" x2="8" transform="translate(693.051 2427)" fill="none" stroke="#8a9bb1" stroke-linecap="round" stroke-width="2"/>
    <g id="Rectángulo_406754" data-name="Rectángulo 406754" transform="translate(651.051 2397)" fill="#fff" stroke="#8a9bb1" stroke-width="3">
      <rect width="42" height="59" stroke="none"/>
      <rect x="1.5" y="1.5" width="39" height="56" fill="none"/>
    </g>
    <path id="Trazado_901098" data-name="Trazado 901098" d="M1.936-2.418H-1.936L-2.806,0H-4.062L-.533-9.242H.533L4.069,0H2.818Zm-3.5-1H1.574L0-7.738Z" transform="translate(459.051 2418)" fill="#12263f"/>
    <path id="Trazado_901099" data-name="Trazado 901099" d="M-2.974,0V-9.242H.048a3.507,3.507,0,0,1,2.263.622,2.242,2.242,0,0,1,.759,1.841A1.877,1.877,0,0,1,2.7-5.634a2.387,2.387,0,0,1-1,.771,2.143,2.143,0,0,1,1.184.8,2.286,2.286,0,0,1,.435,1.4A2.472,2.472,0,0,1,2.51-.711,3.334,3.334,0,0,1,.232,0Zm1.219-4.323V-1H.257A1.938,1.938,0,0,0,1.6-1.438a1.549,1.549,0,0,0,.492-1.216q0-1.669-1.815-1.669Zm0-.978H.086a1.93,1.93,0,0,0,1.279-.4,1.344,1.344,0,0,0,.479-1.088A1.321,1.321,0,0,0,1.4-7.9,2.182,2.182,0,0,0,.048-8.246h-1.8Z" transform="translate(459.051 2436)" fill="#12263f"/>
    <path id="Trazado_901100" data-name="Trazado 901100" d="M-9.014-2.418h-3.872L-13.755,0h-1.257l3.529-9.242h1.066L-6.881,0h-1.25Zm-3.5-1h3.142L-10.95-7.738Zm4.932-6.906h-5.37v-.343h5.37Zm5.129,5.364H.121v1.111H-2.457v2.92H-3.637v-2.92H-6.214V-4.958h2.577v-2.7h1.181ZM4.951,0V-9.242H7.973a3.507,3.507,0,0,1,2.263.622,2.242,2.242,0,0,1,.759,1.841,1.877,1.877,0,0,1-.368,1.146,2.387,2.387,0,0,1-1,.771,2.143,2.143,0,0,1,1.184.8,2.286,2.286,0,0,1,.435,1.4,2.472,2.472,0,0,1-.806,1.955A3.334,3.334,0,0,1,8.157,0ZM6.17-4.323V-1H8.182a1.938,1.938,0,0,0,1.343-.441,1.549,1.549,0,0,0,.492-1.216q0-1.669-1.815-1.669Zm0-.978H8.011A1.93,1.93,0,0,0,9.29-5.7a1.344,1.344,0,0,0,.479-1.088A1.321,1.321,0,0,0,9.325-7.9a2.182,2.182,0,0,0-1.352-.347H6.17ZM11.1-10.321H5.726v-.343H11.1Z" transform="translate(546.051 2419)" fill="#12263f"/>
    <path id="Trazado_901101" data-name="Trazado 901101" d="M-13.952-4.12a5.731,5.731,0,0,1-2.282-1.108,2.116,2.116,0,0,1-.714-1.622,2.236,2.236,0,0,1,.873-1.806,3.469,3.469,0,0,1,2.269-.714,3.786,3.786,0,0,1,1.7.368,2.792,2.792,0,0,1,1.155,1.016,2.6,2.6,0,0,1,.409,1.416h-1.225A1.69,1.69,0,0,0-12.3-7.892a2.168,2.168,0,0,0-1.5-.481,2.22,2.22,0,0,0-1.406.4,1.326,1.326,0,0,0-.5,1.1,1.193,1.193,0,0,0,.479.957,4.7,4.7,0,0,0,1.631.715,7.569,7.569,0,0,1,1.8.715,2.736,2.736,0,0,1,.965.911,2.325,2.325,0,0,1,.314,1.225,2.159,2.159,0,0,1-.876,1.8,3.735,3.735,0,0,1-2.342.676A4.344,4.344,0,0,1-15.52-.238a2.991,2.991,0,0,1-1.273-1,2.44,2.44,0,0,1-.448-1.441h1.225A1.592,1.592,0,0,0-15.4-1.355a2.606,2.606,0,0,0,1.654.486,2.4,2.4,0,0,0,1.479-.394,1.278,1.278,0,0,0,.514-1.073,1.255,1.255,0,0,0-.476-1.051A5.489,5.489,0,0,0-13.952-4.12ZM-4.907,0a2.467,2.467,0,0,1-.165-.724A2.62,2.62,0,0,1-7.027.127,2.424,2.424,0,0,1-8.693-.448,1.859,1.859,0,0,1-9.344-1.9a1.942,1.942,0,0,1,.816-1.666,3.846,3.846,0,0,1,2.295-.594h1.143V-4.7a1.319,1.319,0,0,0-.368-.981,1.48,1.48,0,0,0-1.085-.365A1.712,1.712,0,0,0-7.6-5.732a.935.935,0,0,0-.425.768H-9.2a1.621,1.621,0,0,1,.365-.993,2.491,2.491,0,0,1,.99-.759A3.331,3.331,0,0,1-6.475-7a2.715,2.715,0,0,1,1.86.594,2.141,2.141,0,0,1,.7,1.635v3.161A3.865,3.865,0,0,0-3.675-.1V0ZM-6.855-.9a2.064,2.064,0,0,0,1.047-.286,1.728,1.728,0,0,0,.717-.743V-3.333h-.92q-2.158,0-2.158,1.263a1.069,1.069,0,0,0,.368.863A1.415,1.415,0,0,0-6.855-.9ZM-.8,0H-1.974V-9.75H-.8ZM2.355,0H1.181V-6.868H2.355ZM1.085-8.69a.7.7,0,0,1,.175-.482.655.655,0,0,1,.517-.2.666.666,0,0,1,.521.2.694.694,0,0,1,.178.482.671.671,0,0,1-.178.476.678.678,0,0,1-.521.19.667.667,0,0,1-.517-.19A.678.678,0,0,1,1.085-8.69Zm2.863,5.2A4.023,4.023,0,0,1,4.7-6.033,2.369,2.369,0,0,1,6.659-7a2.382,2.382,0,0,1,1.911.825V-9.75H9.744V0H8.665L8.607-.736A2.391,2.391,0,0,1,6.646.127,2.346,2.346,0,0,1,4.7-.851,4.069,4.069,0,0,1,3.948-3.4Zm1.174.133A3.046,3.046,0,0,0,5.6-1.53a1.56,1.56,0,0,0,1.333.66,1.713,1.713,0,0,0,1.631-1V-5.027A1.726,1.726,0,0,0,6.951-6,1.567,1.567,0,0,0,5.6-5.332,3.354,3.354,0,0,0,5.123-3.358ZM15.806,0a2.467,2.467,0,0,1-.165-.724,2.62,2.62,0,0,1-1.955.851,2.424,2.424,0,0,1-1.666-.574A1.859,1.859,0,0,1,11.369-1.9a1.942,1.942,0,0,1,.816-1.666,3.846,3.846,0,0,1,2.295-.594h1.143V-4.7a1.319,1.319,0,0,0-.368-.981,1.48,1.48,0,0,0-1.085-.365,1.712,1.712,0,0,0-1.054.317.935.935,0,0,0-.425.768H11.508a1.621,1.621,0,0,1,.365-.993,2.491,2.491,0,0,1,.99-.759A3.331,3.331,0,0,1,14.238-7,2.715,2.715,0,0,1,16.1-6.4a2.141,2.141,0,0,1,.7,1.635v3.161a3.865,3.865,0,0,0,.241,1.5V0ZM13.857-.9A2.064,2.064,0,0,0,14.9-1.181a1.728,1.728,0,0,0,.717-.743V-3.333H14.7q-2.158,0-2.158,1.263a1.069,1.069,0,0,0,.368.863A1.415,1.415,0,0,0,13.857-.9Z" transform="translate(546.051 2444)" fill="#12263f"/>
    <path id="Trazado_901102" data-name="Trazado 901102" d="M1.936-2.418H-1.936L-2.806,0H-4.062L-.533-9.242H.533L4.069,0H2.818Zm-3.5-1H1.574L0-7.738Z" transform="translate(629.051 2412)" fill="#12263f"/>
    <path id="Trazado_901103" data-name="Trazado 901103" d="M-2.974,0V-9.242H.048a3.507,3.507,0,0,1,2.263.622,2.242,2.242,0,0,1,.759,1.841A1.877,1.877,0,0,1,2.7-5.634a2.387,2.387,0,0,1-1,.771,2.143,2.143,0,0,1,1.184.8,2.286,2.286,0,0,1,.435,1.4A2.472,2.472,0,0,1,2.51-.711,3.334,3.334,0,0,1,.232,0Zm1.219-4.323V-1H.257A1.938,1.938,0,0,0,1.6-1.438a1.549,1.549,0,0,0,.492-1.216q0-1.669-1.815-1.669Zm0-.978H.086a1.93,1.93,0,0,0,1.279-.4,1.344,1.344,0,0,0,.479-1.088A1.321,1.321,0,0,0,1.4-7.9,2.182,2.182,0,0,0,.048-8.246h-1.8Z" transform="translate(629.051 2448)" fill="#12263f"/>
    <path id="Trazado_901104" data-name="Trazado 901104" d="M-2-4.443l-4.2-1.48V-7.008L-.778-4.848v.834L-6.2-1.849v-1.1ZM-.9-.006H-6.2V-.965H-.9ZM4.377,0H3.2V-7.827l-2.368.87V-8.023L4.193-9.287h.184Z" transform="translate(672.051 2414)" fill="#12263f"/>
    <path id="Trazado_901105" data-name="Trazado 901105" d="M-9.014-2.418h-3.872L-13.755,0h-1.257l3.529-9.242h1.066L-6.881,0h-1.25Zm-3.5-1h3.142L-10.95-7.738ZM.762-4.958H3.339v1.111H.762v2.92H-.419v-2.92H-3V-4.958H-.419v-2.7H.762ZM8.169,0V-9.242h3.021a3.507,3.507,0,0,1,2.263.622,2.242,2.242,0,0,1,.759,1.841,1.877,1.877,0,0,1-.368,1.146,2.387,2.387,0,0,1-1,.771,2.143,2.143,0,0,1,1.184.8,2.286,2.286,0,0,1,.435,1.4,2.472,2.472,0,0,1-.806,1.955A3.334,3.334,0,0,1,11.375,0ZM9.388-4.323V-1H11.4a1.938,1.938,0,0,0,1.343-.441,1.549,1.549,0,0,0,.492-1.216q0-1.669-1.815-1.669Zm0-.978h1.841a1.93,1.93,0,0,0,1.279-.4,1.344,1.344,0,0,0,.479-1.088,1.321,1.321,0,0,0-.444-1.11,2.182,2.182,0,0,0-1.352-.347h-1.8Z" transform="translate(711.051 2419)" fill="#12263f"/>
    <circle id="Elipse_11639" data-name="Elipse 11639" cx="3" cy="3" r="3" transform="translate(693.051 2421)" fill="#8a9bb1"/>
    <g id="Trazado_900540" data-name="Trazado 900540" transform="translate(475.676 2408)" fill="#c7e0ff">
      <path d="M 15.6258716583252 34.19907379150391 C 8.712173461914062 34.19907379150391 2.714185953140259 33.06735992431641 0.7740804553031921 32.65869140625 L 9.253421783447266 17.95816421508789 L 9.387532234191895 17.72567367553711 L 9.267871856689453 17.48542404174805 L 0.723341166973114 0.3307600319385529 C 2.587814092636108 -0.1270839124917984 8.644186019897461 -1.467595934867859 15.6258716583252 -1.467595934867859 C 20.53507232666016 -1.467595934867859 24.93234252929688 -0.8146559000015259 28.69554138183594 0.4730741381645203 C 31.60137176513672 1.467414140701294 34.59797286987305 3.004584074020386 37.60212326049805 5.041883945465088 C 40.0136833190918 6.677314281463623 42.4346809387207 8.636343955993652 44.79788208007812 10.8645544052124 C 48.0995979309082 13.97767639160156 50.37105178833008 16.76067161560059 51.09902954101562 17.68462562561035 C 50.34787750244141 18.50602340698242 48.09020614624023 20.88637351989746 44.82338333129883 23.54603385925293 C 42.46079254150391 25.46952438354492 40.04021072387695 27.16077423095703 37.62887191772461 28.57278442382812 C 34.62325286865234 30.33280372619629 31.62443161010742 31.6610050201416 28.71573257446289 32.52050399780273 C 24.94634246826172 33.63432312011719 20.54227256774902 34.19907379150391 15.6258716583252 34.19907379150391 Z" stroke="none"/>
      <path d="M 15.62587356567383 -0.9675941467285156 C 9.330814361572266 -0.9675941467285156 3.791946411132812 0.131622314453125 1.451629638671875 0.6714706420898438 L 9.954750061035156 17.74299430847168 L 1.553951263427734 32.30736541748047 C 3.969425201416016 32.78323745727539 9.424331665039062 33.69907379150391 15.62587356567383 33.69907379150391 C 20.49429130554199 33.69907379150391 24.85068130493164 33.14121246337891 28.57404136657715 32.04099273681641 C 31.44052124023438 31.19397354125977 34.39839935302734 29.8840446472168 37.36551284790039 28.1475830078125 C 39.75283050537109 26.75043487548828 42.15041351318359 25.07619476318359 44.49164199829102 23.17136383056641 C 47.39530181884766 20.80893707275391 49.49657821655273 18.6678466796875 50.44018173217773 17.66028022766113 C 49.51883316040039 16.51700973510742 47.39450073242188 13.99842834472656 44.44063186645508 11.21492385864258 C 42.09819030761719 9.007583618164062 39.69977188110352 7.067733764648438 37.31200408935547 5.449274063110352 C 34.34785461425781 3.44012451171875 31.3943920135498 1.925054550170898 28.53366279602051 0.9461441040039062 C 24.82268142700195 -0.3237266540527344 20.47987174987793 -0.9675941467285156 15.62587356567383 -0.9675941467285156 M 15.62586975097656 -1.96759033203125 C 19.90147399902344 -1.96759033203125 24.54439544677734 -1.475872039794922 28.857421875 3.814697265625e-06 C 41.794921875 4.427083969116211 51.75 17.70834350585938 51.75 17.70834350585938 C 51.75 17.70834350585938 41.794921875 29.17708396911621 28.857421875 33.00000381469727 C 15.91991806030273 36.82291412353516 3.814697265625e-06 33.00000381469727 3.814697265625e-06 33.00000381469727 L 8.8203125 17.70834350585938 L 3.814697265625e-06 3.814697265625e-06 C 3.814697265625e-06 3.814697265625e-06 7.076225280761719 -1.96759033203125 15.62586975097656 -1.96759033203125 Z" stroke="none" fill="#8a9bb1"/>
    </g>
    <g id="Elipse_11642" data-name="Elipse 11642" transform="translate(522.051 2421)" fill="#c7e0ff" stroke="#8a9bb1" stroke-width="1">
      <circle cx="4.5" cy="4.5" r="4.5" stroke="none"/>
      <circle cx="4.5" cy="4.5" r="4" fill="none"/>
    </g>
    <line id="Línea_599" data-name="Línea 599" x2="30" transform="translate(697.051 2407.5)" fill="none" stroke="#12263f" stroke-width="1"/>
  </g>
</svg>
