<svg xmlns="http://www.w3.org/2000/svg" width="126.981" height="34" viewBox="0 0 126.981 34">
  <g id="Grupo_1113185" data-name="Grupo 1113185" transform="translate(-804.488 -2456)">
    <path id="Trazado_901106" data-name="Trazado 901106" d="M9.216,13a2.657,2.657,0,0,1-.178-.779,2.822,2.822,0,0,1-2.105.916,2.611,2.611,0,0,1-1.794-.619,2,2,0,0,1-.7-1.569,2.091,2.091,0,0,1,.878-1.794,4.142,4.142,0,0,1,2.471-.639h1.23V7.935a1.42,1.42,0,0,0-.4-1.056,1.593,1.593,0,0,0-1.169-.393,1.844,1.844,0,0,0-1.135.342,1.007,1.007,0,0,0-.458.827H4.588a1.745,1.745,0,0,1,.393-1.07,2.683,2.683,0,0,1,1.066-.817,3.588,3.588,0,0,1,1.48-.3,2.924,2.924,0,0,1,2,.639,2.306,2.306,0,0,1,.752,1.76v3.4a4.162,4.162,0,0,0,.26,1.62V13Zm-2.1-.964a2.223,2.223,0,0,0,1.128-.308,1.861,1.861,0,0,0,.772-.8V9.411H8.026q-2.324,0-2.324,1.36a1.151,1.151,0,0,0,.4.93A1.524,1.524,0,0,0,7.117,12.036Z" transform="translate(800.051 2456)" fill="#12263f"/>
    <path id="Trazado_901107" data-name="Trazado 901107" d="M10.792,9.384a4.4,4.4,0,0,1-.779,2.724A2.49,2.49,0,0,1,7.92,13.137a2.578,2.578,0,0,1-2.167-.991L5.692,13H4.53V2.5H5.794V6.417a2.564,2.564,0,0,1,2.112-.95,2.505,2.505,0,0,1,2.116,1.019,4.53,4.53,0,0,1,.769,2.789ZM9.527,9.24a3.417,3.417,0,0,0-.5-2,1.652,1.652,0,0,0-1.436-.7A1.857,1.857,0,0,0,5.794,7.7v3.2a1.909,1.909,0,0,0,1.812,1.162,1.643,1.643,0,0,0,1.415-.7A3.634,3.634,0,0,0,9.527,9.24Z" transform="translate(800.051 2472)" fill="#12263f"/>
    <path id="Trazado_901108" data-name="Trazado 901108" d="M9.154,11.038a.931.931,0,0,0-.386-.8,3.718,3.718,0,0,0-1.347-.489A6.367,6.367,0,0,1,5.9,9.261a2.169,2.169,0,0,1-.834-.684,1.635,1.635,0,0,1-.27-.943A1.919,1.919,0,0,1,5.562,6.1a3,3,0,0,1,1.965-.629,3.091,3.091,0,0,1,2.041.649,2.063,2.063,0,0,1,.783,1.661H9.079a1.142,1.142,0,0,0-.441-.9,1.652,1.652,0,0,0-1.111-.376,1.729,1.729,0,0,0-1.08.3.947.947,0,0,0-.39.786.767.767,0,0,0,.362.69,4.458,4.458,0,0,0,1.309.444,6.821,6.821,0,0,1,1.535.506,2.239,2.239,0,0,1,.872.708,1.74,1.74,0,0,1,.284,1.008,1.893,1.893,0,0,1-.793,1.589,3.326,3.326,0,0,1-2.058.6A3.725,3.725,0,0,1,6,12.822a2.557,2.557,0,0,1-1.07-.878,2.117,2.117,0,0,1-.386-1.22H5.8a1.309,1.309,0,0,0,.509,1.008,1.976,1.976,0,0,0,1.254.373,2.039,2.039,0,0,0,1.152-.291A.893.893,0,0,0,9.154,11.038Z" transform="translate(921.051 2464)" fill="#12263f"/>
    <line id="Línea_600" data-name="Línea 600" x2="69.125" transform="translate(851.426 2473.5)" fill="none" stroke="#8a9bb1" stroke-linecap="round" stroke-width="2"/>
    <line id="Línea_601" data-name="Línea 601" x2="31" transform="translate(815.051 2467)" fill="none" stroke="#8a9bb1" stroke-linecap="round" stroke-width="2"/>
    <line id="Línea_602" data-name="Línea 602" x2="31" transform="translate(815.051 2481)" fill="none" stroke="#8a9bb1" stroke-linecap="round" stroke-width="2"/>
    <g id="Trazado_900556" data-name="Trazado 900556" transform="translate(819.676 2456)" fill="#c7e0ff">
      <path d="M 28.70578956604004 32.5 L 0.8656120300292969 32.5 L 9.253421783447266 17.95816040039062 L 9.387532234191895 17.72566986083984 L 9.267871856689453 17.48542022705078 L 0.8076395988464355 0.5 L 28.68659782409668 0.5 L 50.89435577392578 17.67860221862793 L 28.70578956604004 32.5 Z" stroke="none"/>
      <path d="M 1.615268707275391 1 L 9.954750061035156 17.74298858642578 L 1.731239318847656 32 L 28.55415153503418 32 L 50.03871917724609 17.64885520935059 L 28.51579666137695 1 L 1.615268707275391 1 M 3.814697265625e-06 0 L 28.857421875 0 L 51.75 17.70833969116211 L 28.857421875 33 L 3.814697265625e-06 33 L 8.8203125 17.70833969116211 L 3.814697265625e-06 0 Z" stroke="none" fill="#8a9bb1"/>
    </g>
    <g id="Polígono_2" data-name="Polígono 2" transform="translate(898.051 2457) rotate(90)" fill="#c7e0ff">
      <path d="M 31.81791877746582 16.5 L 1.182081818580627 16.5 L 16.5 0.7179024219512939 L 31.81791877746582 16.5 Z" stroke="none"/>
      <path d="M 16.5 1.435805320739746 L 2.364164352416992 16 L 30.63583564758301 16 L 16.5 1.435805320739746 M 16.5 0 L 33 17 L 0 17 L 16.5 0 Z" stroke="none" fill="#8a9bb1"/>
    </g>
    <g id="Elipse_11643" data-name="Elipse 11643" transform="translate(895.051 2470)" fill="#c7e0ff" stroke="#707070" stroke-width="1">
      <circle cx="3.5" cy="3.5" r="3.5" stroke="none"/>
      <circle cx="3.5" cy="3.5" r="3" fill="none"/>
    </g>
  </g>
</svg>
